<svg xmlns="http://www.w3.org/2000/svg" width="44px" height="29px">
	<path d="M 0,0.5 L 0,0 L 0.5,0 L 1,0 L 1.5,0 L 2,0 L 2.5,0 L 3,0 L 3.5,0 L 4,0 L 4.5,0 L 5,0 L 5.5,0 L 6,0 L 6.5,0 L 7,0 L 7.5,0 L 8,0 L 8.5,0 L 9,0 L 9.5,0 L 10,0 L 10.5,0 L 11,0 L 11.5,0 L 12,0 L 12.5,0 L 13,0 L 13.5,0 L 14,0 L 14.5,0 L 15,0 L 15.5,0 L 16,0 L 16.5,0 L 17,0 L 17.5,0 L 18,0 L 18.5,0 L 19,0 L 19.5,0 L 20,0 L 20.5,0 L 21,0 L 21.5,0 L 22,0 L 22.5,0 L 23,0 L 23.5,0 L 24,0 L 24.5,0 L 25,0 L 25.5,0 L 26,0 L 26.5,0 L 27,0 L 27.5,0 L 28,0 L 28.5,0 L 29,0 L 29.5,0 L 30,0 L 30.5,0 L 31,0 L 31.5,0 L 32,0 L 32.5,0 L 33,0 L 33.5,0 L 34,0 L 34.5,0 L 35,0 L 35.5,0 L 36,0 L 36.5,0 L 37,0 L 37.5,0 L 38,0 L 38.5,0 L 39,0 L 39.5,0 L 40,0 L 40.5,0 L 41,0 L 41.5,0 L 42,0 L 42.5,0 L 43,0 L 43.5,0 L 44,0 L 44,0.5 L 44,1 L 44,1.5 L 44,2 L 44,2.5 L 44,3 L 44,3.5 L 44,4 L 44,4.5 L 44,5 L 44,5.5 L 44,6 L 44,6.5 L 44,7 L 44,7.5 L 44,8 L 44,8.5 L 44,9 L 44,9.5 L 44,10 L 44,10.5 L 44,11 L 44,11.5 L 44,12 L 44,12.5 L 44,13 L 44,13.5 L 44,14 L 44,14.5 L 44,15 L 44,15.5 L 44,16 L 44,16.5 L 44,17 L 44,17.5 L 44,18 L 44,18.5 L 44,19 L 44,19.5 L 44,20 L 44,20.5 L 44,21 L 44,21.5 L 44,22 L 44,22.5 L 44,23 L 44,23.5 L 44,24 L 44,24.5 L 44,25 L 44,25.5 L 44,26 L 44,26.5 L 44,27 L 44,27.5 L 44,28 L 44,28.5 L 44,29 L 43.5,29 L 43,29 L 42.5,29 L 42,29 L 41.5,29 L 41,29 L 40.5,29 L 40,29 L 39.5,29 L 39,29 L 38.5,29 L 38,29 L 37.5,29 L 37,29 L 36.5,29 L 36,29 L 35.5,29 L 35,29 L 34.5,29 L 34,29 L 33.5,29 L 33,29 L 32.5,29 L 32,29 L 31.5,29 L 31,29 L 30.5,29 L 30,29 L 29.5,29 L 29,29 L 28.5,29 L 28,29 L 27.5,29 L 27,29 L 26.5,29 L 26,29 L 25.5,29 L 25,29 L 24.5,29 L 24,29 L 23.5,29 L 23,29 L 22.5,29 L 22,29 L 21.5,29 L 21,29 L 20.5,29 L 20,29 L 19.5,29 L 19,29 L 18.5,29 L 18,29 L 17.5,29 L 17,29 L 16.5,29 L 16,29 L 15.5,29 L 15,29 L 14.5,29 L 14,29 L 13.5,29 L 13,29 L 12.5,29 L 12,29 L 11.5,29 L 11,29 L 10.5,29 L 10,29 L 9.5,29 L 9,29 L 8.5,29 L 8,29 L 7.5,29 L 7,29 L 6.5,29 L 6,29 L 5.5,29 L 5,29 L 4.5,29 L 4,29 L 3.5,29 L 3,29 L 2.5,29 L 2,29 L 1.5,29 L 1,29 L 0.5,29 L 0,29 L 0,28.5 L 0,28 L 0,27.5 L 0,27 L 0,26.5 L 0,26 L 0,25.5 L 0,25 L 0,24.5 L 0,24 L 0,23.5 L 0,23 L 0,22.5 L 0,22 L 0,21.5 L 0,21 L 0,20.5 L 0,20 L 0,19.5 L 0,19 L 0,18.5 L 0,18 L 0,17.5 L 0,17 L 0,16.5 L 0,16 L 0,15.5 L 0,15 L 0,14.5 L 0,14 L 0,13.5 L 0,13 L 0,12.5 L 0,12 L 0,11.5 L 0,11 L 0,10.5 L 0,10 L 0,9.5 L 0,9 L 0,8.5 L 0,8 L 0,7.5 L 0,7 L 0,6.5 L 0,6 L 0,5.5 L 0,5 L 0,4.5 L 0,4 L 0,3.5 L 0,3 L 0,2.5 L 0,2 L 0,1.5 L 0,1 L 0,0.5 M 23.6324027686822,25.7290273453302 Q 24.1905283785032,25.6437891629845 24.3746721252681,25.603973001814 Q 24.558815872033,25.5641568406434 24.9360652295575,25.4813580096147 Q 25.3133145870819,25.3985591785859 25.6708245232507,25.3001303825819 Q 26.0283344594195,25.2017015865779 26.4808556626869,25.0288957878209 Q 26.9333768659543,24.8560899890638 27.1679217725086,24.7603131421831 Q 27.4024666790629,24.6645362953025 27.7833770314329,24.503945992883 Q 28.1642873838028,24.3433556904636 28.5790391761479,24.1572414716507 Q 28.993790968493,23.9711272528377 29.2770524977367,23.7910201945533 Q 29.5603140269803,23.6109131362689 29.9559859065134,23.2980994892647 Q 30.3516577860465,22.9852858422605 30.6255812211896,22.761253803217 Q 30.8995046563328,22.5372217641735 31.0249692420592,22.4049050976312 Q 31.1504338277855,22.272588431089 31.3757642991262,22.0499721560278 Q 31.601094770467,21.8273558809666 31.8865571922851,21.4768162882721 Q 32.1720196141033,21.1262766955776 32.336902095773,20.9203359808809 Q 32.5017845774427,20.7143952661843 32.6064620723396,20.2123269899573 Q 32.7111395672365,19.7102587137303 32.6518314868279,19.3789388161695 Q 32.5925234064192,19.0476189186087 32.554629802351,18.7585646911506 Q 32.5167361982827,18.4695104636925 32.4317833289652,18.1412005943787 Q 32.3468304596477,17.812890725065 32.2554898571132,17.2933267427927 Q 32.1641492545787,16.7737627605203 32.0808972364552,16.4171492821384 Q 31.9976452183317,16.0605358037565 31.8728530431389,15.6108516929023 Q 31.7480608679462,15.1611675820482 31.6315691699013,14.7474566909647 Q 31.5150774718565,14.3337457998813 31.4685687885939,13.9422906100248 Q 31.4220601053313,13.5508354201684 31.4556795145411,13.4569799876572 Q 31.489298923751,13.3631245551459 31.6421075059122,12.9623765575932 Q 31.7949160880735,12.5616285600404 31.9588432248083,12.1487689627503 Q 32.1227703615431,11.7359093654602 32.3390469201673,11.3938981106127 Q 32.5553234787915,11.0518868557652 32.6526617393958,10.9009434278826 Q 32.75,10.75 32.8960403693007,10.5484688679797 Q 33.0420807386013,10.3469377359594 33.3426769143693,9.89949063605722 Q 33.6432730901373,9.45204353615504 33.7680018717449,9.2520797361222 Q 33.8927306533524,9.05211593608936 34.16152083273,8.60688828224986 Q 34.4303110121076,8.16166062841036 34.6085204768966,7.84633257943035 Q 34.7867299416856,7.53100453045033 34.9137714166026,7.31111140167858 Q 35.0408128915195,7.09121827290683 35.2871165537972,6.60696740142045 Q 35.5334202160749,6.12271652993407 35.5733164337922,6.03803959898094 Q 35.6132126515094,5.9533626680278 35.6524413044227,5.5064263769339 Q 35.6916699573359,5.05949008583999 35.7402488540929,4.61033611487846 Q 35.7888277508499,4.16118214391693 35.7576930931863,3.67140519903456 Q 35.7265584355227,3.1816282541522 35.634957503532,2.83486169219709 Q 35.5433565715413,2.48809513024199 35.2455897546586,2.36593813751402 Q 34.9478229377758,2.24378114478606 34.6469524742672,2.35643165639203 Q 34.3460820107586,2.46908216799799 33.963876543899,2.60894591674858 Q 33.5816710770394,2.74880966549917 33.2020062757723,2.90664304360707 Q 32.8223414745053,3.06447642171498 32.6366951166765,3.19001801090898 Q 32.4510487588477,3.31555960010298 32.1709831388358,3.50699475696054 Q 31.8909175188238,3.6984299138181 31.5524627695512,3.93228642252264 Q 31.2140080202785,4.16614293122717 30.9005546570525,4.37025846406829 Q 30.5871012938265,4.57437399690942 30.2992539410418,4.76187749862409 Q 30.011406588257,4.94938100033877 29.6750016400707,5.20546865758042 Q 29.3385966918844,5.46155631482208 29.0211512621998,5.67813742509607 Q 28.7037058325152,5.89471853537006 28.5740687871056,5.98273579271987 Q 28.4444317416961,6.07075305006968 28.1034136173448,6.28451376840682 Q 27.7623954929935,6.49827448674397 27.3311588685406,6.7347153839002 Q 26.8999222440878,6.97115628105642 26.7079112416345,7.07563704968809 Q 26.5159002391812,7.18011781831976 26.1693082084445,7.31894695054807 Q 25.8227161777079,7.45777608277638 25.4384900826849,7.50171048523123 Q 25.0542639876619,7.54564488768608 24.7166655676983,7.53631542502498 Q 24.3790671477346,7.52698596236388 24.126458753163,7.48783350068858 Q 23.8738503585913,7.44868103901329 23.3969329037165,7.34585422453627 Q 22.9200154488417,7.24302741005925 22.5267866630581,7.18615960134713 Q 22.1335578772745,7.12929179263501 21.6464898104123,7.22113317107253 Q 21.1594217435501,7.31297454951004 20.9070714918347,7.38568376092505 Q 20.6547212401194,7.45839297234006 20.1508011411763,7.55220491080648 Q 19.6468810422331,7.64601684927289 19.3035360994067,7.57677976819769 Q 18.9601911565802,7.5075426871225 18.694066041094,7.45615365444387 Q 18.4279409256079,7.40476462176524 18.1191918567029,7.33487564026605 Q 17.8104427877979,7.26498665876686 17.3938429784117,7.0107285468307 Q 16.9772431690256,6.75647043489454 16.6807870011804,6.6121941179676 Q 16.3843308333351,6.46791780104065 16.1525194984407,6.32398619122058 Q 15.9207081635463,6.1800545814005 15.4363964291983,5.90756523596126 Q 14.9520846948503,5.63507589052202 14.8671304758427,5.58717582888188 Q 14.7821762568351,5.53927576724173 14.409318977459,5.31265278891085 Q 14.036461698083,5.08602981057997 13.7377484336846,4.85446855625695 Q 13.4390351692862,4.62290730193393 13.1491583996798,4.42291230512686 Q 12.8592816300733,4.22291730831979 12.5707452491081,4.01900125566474 Q 12.2822088681428,3.8150852030097 12.0084226414368,3.66564210512007 Q 11.7346364147308,3.51619900723044 11.3559334725053,3.31860300406981 Q 10.9772305302798,3.12100700090919 10.6545770018848,2.95784586305164 Q 10.3319234734899,2.79468472519409 10.0889724892746,2.67696737547031 Q 9.84602150505922,2.55925002574653 9.4954094321271,2.45635138156072 Q 9.14479735919498,2.35345273737491 8.86150796288811,2.33825929132326 Q 8.57821856658124,2.3230658452716 8.42720943950802,2.63732374270904 Q 8.27620031243479,2.95158164014648 8.25705028616686,3.44346698161376 Q 8.23790025989893,3.93535232308104 8.28442149867044,4.49368311336436 Q 8.33094273744195,5.05201390364767 8.41488682687161,5.32951387455315 Q 8.49883091630127,5.60701384545863 8.61055005635044,5.97372056533872 Q 8.72226919639961,6.34042728521881 8.89088993040071,6.67743034875716 Q 9.05951066440181,7.0144334122955 9.16121833979791,7.24060025516809 Q 9.26292601519401,7.46676709804068 9.40779499676209,7.79641578383577 Q 9.55266397833017,8.12606446963086 9.80124432130309,8.62558509479304 Q 10.049824664276,9.12510571995522 10.2445189224356,9.36985125942498 Q 10.4392131805952,9.61459679889474 10.740885612929,9.97841540423265 Q 11.0425580452627,10.3422340095706 11.2313812516136,10.5728954278796 Q 11.4202044579644,10.8035568461886 11.5855552232641,11.0258232668977 Q 11.7509059885637,11.2480896876068 11.8716410610052,11.4315398455919 Q 11.9923761334468,11.614990003577 12.1892900468965,12.0028976356275 Q 12.3862039603462,12.390805267678 12.4124983152898,12.7562211673969 Q 12.4387926702335,13.1216370671157 12.4185948083962,13.3853458397837 Q 12.3983969465589,13.6490546124517 12.3786692290176,13.8476063225698 Q 12.3589415114764,14.0461580326879 12.3088394236967,14.4944291325202 Q 12.258737335917,14.9427002323525 12.1395271717114,15.4867256779336 Q 12.0203170075059,16.0307511235148 11.8767975858363,16.5571733579248 Q 11.7332781641666,17.0835955923347 11.6545795166595,17.3837104949384 Q 11.5758808691524,17.6838253975421 11.5372968113107,17.9858993147434 Q 11.498712753469,18.2879732319447 11.4070475974735,18.7261658580281 Q 11.315382441478,19.1643584841114 11.3308507739361,19.645187453318 Q 11.3463191063941,20.1260164225246 11.4499426988826,20.3722079031564 Q 11.5535662913712,20.6183993837882 11.7241048044987,20.8512544677249 Q 11.8946433176262,21.0841095516617 12.1475235608046,21.4372612671867 Q 12.400403803983,21.7904129827118 12.6723022767039,22.0966148736929 Q 12.9442007494248,22.4028167646741 13.0621071193889,22.5293880843229 Q 13.180013489353,22.6559594039717 13.4640939274519,22.861410377599 Q 13.7481743655508,23.0668613512264 14.120217621266,23.3317213718345 Q 14.4922608769812,23.5965813924426 14.7662685627077,23.7399291740684 Q 15.0402762484342,23.8832769556941 15.3732402328743,24.0618413682966 Q 15.7062042173143,24.2404057808991 16.0949361992685,24.4354516271841 Q 16.4836681812227,24.6304974734692 16.7284164259517,24.716151292682 Q 16.9731646706807,24.8018051118948 17.4603596327176,24.9712066919176 Q 17.9475545947545,25.1406082719404 18.2928519222968,25.2335029621532 Q 18.6381492498392,25.3263976523659 19.0636279889446,25.4439149170387 Q 19.48910672805,25.5614321817115 19.7692405065553,25.611116363515 Q 20.0493742850606,25.6608005453184 20.5261964801879,25.712918799848 Q 21.0030186753152,25.7650370543776 21.4405636728348,25.8025836053666 Q 21.8781086703544,25.8401301563555 22.4761929146078,25.8271978420157 Q 23.0742771588612,25.814265527676 23.6324027686822,25.7290273453302" fill="#ffffff" fill-opacity="1" />
	<path d="M 8.27280828535338,2.81386027007893 Q 8.27509346727752,2.54954190537079 8.6434338740159,2.5207689242767 Q 9.01177428075428,2.49199594318261 9.3788058722293,2.53767715105213 Q 9.74583746370433,2.58335835892165 10.0399805089587,2.68032771563988 Q 10.334123554213,2.7772970723581 10.6693778855467,2.92645194989231 Q 11.0046322168804,3.07560682742652 11.4408200065388,3.2853678949633 Q 11.8770077961972,3.49512896250008 12.0489526698012,3.60880837937994 Q 12.2208975434051,3.72248779625981 12.4342041321491,3.86670790961557 Q 12.647510720893,4.01092802297134 13.0212353970954,4.28153741314613 Q 13.3949600732978,4.55214680332092 13.7185573680762,4.76939890447277 Q 14.0421546628546,4.98665100562463 14.3711779841088,5.21725307863311 Q 14.700201305363,5.44785515164158 14.9561390314862,5.62463839800313 Q 15.2120767576094,5.80142164436468 15.4741189820513,5.97043191870113 Q 15.7361612064932,6.13944219303757 16.0762658534577,6.36487140075298 Q 16.4163705004223,6.59030060846838 16.6387483308563,6.7236841640138 Q 16.8611261612904,6.85706771955922 17.2026943659946,7.03859298616931 Q 17.5442625706989,7.22011825277941 17.9261106031719,7.32565751558899 Q 18.307958635645,7.43119677839856 18.6633616556534,7.50529312828686 Q 19.0187646756618,7.57938947817515 19.5061960886552,7.49055652980602 Q 19.9936275016487,7.40172358143689 20.1568695434401,7.37005541473397 Q 20.3201115852316,7.33838724803104 20.5990147701984,7.31838776567294 Q 20.8779179551652,7.29838828331483 21.3503427215795,7.29440620622221 Q 21.8227674879938,7.29042412912959 22.4547897657402,7.37920652626977 Q 23.0868120434865,7.46798892340995 23.3815129476455,7.49948845358425 Q 23.6762138518045,7.53098798375856 23.8391662330665,7.54758922204961 Q 24.0021186143286,7.56419046034067 24.4043671354148,7.61110642851498 Q 24.806615656501,7.65802239668929 25.1663769726485,7.55038542908169 Q 25.526138288796,7.44274846147408 25.8421199825963,7.33858720324984 Q 26.1581016763966,7.2344259450256 26.5527707216052,7.06884059356821 Q 26.9474397668137,6.90325524211081 27.3329922288053,6.67871142871036 Q 27.7185446907969,6.4541676153099 28.0783925842626,6.22895230782635 Q 28.4382404777283,6.0037370003428 28.6210922908194,5.86759972202363 Q 28.8039441039106,5.73146244370447 29.0724424358678,5.55901981508779 Q 29.3409407678251,5.38657718647112 29.7195487160501,5.14383757607142 Q 30.0981566642752,4.90109796567173 30.2845899405817,4.77863138490526 Q 30.4710232168883,4.65616480413879 30.9332918564886,4.34141268198328 Q 31.3955604960888,4.02666055982777 31.5643593480645,3.92222380756737 Q 31.7331582000401,3.81778705530697 31.9064527082811,3.70514315646963 Q 32.0797472165221,3.5924992576323 32.6313364403061,3.29118791320533 Q 33.18292566409,2.98987656877836 33.3792843738358,2.91540720577604 Q 33.5756430835815,2.84093784277371 33.8498908055655,2.72402738560295 Q 34.1241385275494,2.60711692843219 34.399514396599,2.57773002808226 Q 34.6748902656487,2.54834312773233 35.0742013591571,2.568197142772 Q 35.4735124526655,2.58805115781168 35.5408690638623,2.89780701287571 Q 35.6082256750591,3.20756286793973 35.6472855584392,3.57230471581444 Q 35.6863454418193,3.93704656368915 35.6135919141181,4.4417352719776 Q 35.5408383864168,4.94642398026605 35.5036063205642,5.29302782966081 Q 35.4663742547116,5.63963167905557 35.3774061595916,5.87675011972978 Q 35.2884380644716,6.11386856040399 35.0680312895882,6.60945336036824 Q 34.8476245147049,7.1050381603325 34.744406690702,7.33614392990067 Q 34.6411888666992,7.56724969946884 34.4954005495216,7.85911173695774 Q 34.3496122323441,8.15097377444663 34.0998454556858,8.57398508809809 Q 33.8500786790275,8.99699640174955 33.6876378087036,9.26347755949874 Q 33.5251969383798,9.52995871724792 33.2992229176682,9.87305496825048 Q 33.0732488969566,10.216151219253 32.9238964663173,10.4204628409855 Q 32.7745440356781,10.6247744627179 32.5470033983511,10.9222086438605 Q 32.3194627610242,11.2196428250031 32.1035696763038,11.5020393571768 Q 31.8876765915834,11.7844358893505 31.6780331948204,12.0855421283448 Q 31.4683897980574,12.3866483673391 31.4626523412416,12.7602693578567 Q 31.4569148844257,13.1338903483743 31.527929114249,13.5410630564629 Q 31.5989433440724,13.9482357645516 31.6292776030625,14.1697356331487 Q 31.6596118620525,14.3912355017458 31.7106752440558,14.6648582760139 Q 31.761738626059,14.938481050282 31.8927107575374,15.534415533171 Q 32.0236828890157,16.13035001606 32.1656509605135,16.581613775468 Q 32.3076190320112,17.0328775348761 32.3789977203433,17.3110831801889 Q 32.4503764086754,17.5892888255018 32.4937007947563,17.8826450158412 Q 32.5370251808371,18.1760012061805 32.5725708864676,18.6183119129533 Q 32.6081165920981,19.0606226197261 32.6100154455856,19.4393659759671 Q 32.6119142990731,19.8181093322081 32.5846025202875,20.2699365577229 Q 32.557290741502,20.7217637832378 32.3930023257646,20.9278577734322 Q 32.2287139100273,21.1339517636266 31.9952296402458,21.3788369834965 Q 31.7617453704643,21.6237222033663 31.4709755685627,21.9529008347089 Q 31.1802057666612,22.2820794660515 30.978637621699,22.5008050444598 Q 30.7770694767367,22.7195306228681 30.50725554227,22.8995351740273 Q 30.2374416078033,23.0795397251866 29.8343981015889,23.3582473982164 Q 29.4313545953745,23.6369550712462 29.230139720972,23.7675496361125 Q 29.0289248465695,23.8981442009789 28.7803393512291,24.0432371925764 Q 28.5317538558886,24.1883301841739 27.9109798543963,24.4309794696716 Q 27.290205852904,24.6736287551693 27.144918014683,24.7331963561222 Q 26.9996301764621,24.7927639570752 26.4911677103041,24.986338732263 Q 25.9827052441462,25.1799135074508 25.6831835574101,25.2957253097478 Q 25.3836618706741,25.4115371120449 25.0291907211785,25.5254523229787 Q 24.674719571683,25.6393675339126 24.3762403368315,25.6904705427019 Q 24.0777611019801,25.7415735514912 23.516652424391,25.7642335910125 Q 22.9555437468018,25.7868936305339 22.5328056362785,25.7887328704708 Q 22.1100675257552,25.7905721104078 21.6177664769896,25.7641420710199 Q 21.1254654282241,25.7377120316321 20.5659641377877,25.7307297538702 Q 20.0064628473513,25.7237474761083 19.747338309941,25.6541171615963 Q 19.4882137725308,25.5844868470842 19.1733918406469,25.5020756679888 Q 18.8585699087631,25.4196644888933 18.3690805740161,25.2776200257487 Q 17.8795912392692,25.135575562604 17.5107183893028,25.0038201398583 Q 17.1418455393365,24.8720647171126 16.7712117004074,24.7151588679246 Q 16.4005778614784,24.5582530187365 16.1170565325555,24.4219243059561 Q 15.8335352036327,24.2855955931757 15.4306111267328,24.0841669001776 Q 15.027687049833,23.8827382071795 14.7312779902626,23.6875292600889 Q 14.4348689306923,23.4923203129984 14.1800103874377,23.3134697655919 Q 13.9251518441831,23.1346192181854 13.6472250257897,22.9111711814644 Q 13.3692982073963,22.6877231447435 13.0425547001558,22.3784429331151 Q 12.7158111929152,22.0691627214868 12.5677319172561,21.9151068178367 Q 12.419652641597,21.7610509141865 12.2158696180691,21.5182722608819 Q 12.0120865945411,21.2754936075772 11.8333747553212,20.9608869380136 Q 11.6546629161014,20.6462802684499 11.5336210235993,20.3692886596519 Q 11.4125791310973,20.0922970508539 11.4119411712044,19.559346463879 Q 11.4113032113115,19.0263958769042 11.467974945073,18.6115429446737 Q 11.5246466788345,18.1966900124432 11.5708371695985,17.9764408949013 Q 11.6170276603624,17.7561917773593 11.7107364196962,17.2654390768802 Q 11.80444517903,16.7746863764011 11.9214631305875,16.3553567809776 Q 12.0384810821449,15.9360271855542 12.1370808874837,15.5688420377003 Q 12.2356806928225,15.2016568898464 12.3347410221571,14.8689845935123 Q 12.4338013514917,14.5363122971781 12.4639208817803,14.2021859651209 Q 12.4940404120689,13.8680596330636 12.4781410586627,13.5566260233145 Q 12.4622417052566,13.2451924135653 12.3409072662603,12.7905714849956 Q 12.219572827264,12.3359505564258 12.0501150524011,11.9407012344178 Q 11.8806572775383,11.5454519124098 11.7623606321925,11.3905865444758 Q 11.6440639868467,11.2357211765417 11.5058139802158,11.0652066844062 Q 11.3675639735849,10.8946921922707 11.0751965617878,10.4998124837292 Q 10.7828291499907,10.1049327751877 10.6161069762852,9.85061034826823 Q 10.4493848025796,9.59628792134872 10.2221933543203,9.2192447943819 Q 9.99500190606108,8.84220166741507 9.83120976788048,8.53582153633974 Q 9.66741762969988,8.2294414052644 9.52935339069429,7.99192852101611 Q 9.39128915168871,7.75441563676783 9.17374941819522,7.28159296106621 Q 8.95620968470173,6.8087702853646 8.78781008890961,6.42974426803633 Q 8.61941049311748,6.05071825070806 8.55460473731724,5.89606555188474 Q 8.48979898151699,5.74141285306141 8.39729072503852,5.31906614467458 Q 8.30478246856005,4.89671943628775 8.26412837953033,4.42552765350581 Q 8.22347429050062,3.95433587072386 8.24699869696493,3.51625725275546 Q 8.27052310342925,3.07817863478706 8.27280828535338,2.81386027007893 M 23.6281875909787,24.640204960662 Q 24.292278785511,24.559074338553 24.4981271058778,24.5050260387967 Q 24.7039754262445,24.4509777390403 24.9902443888377,24.3831410333261 Q 25.2765133514309,24.315304327612 25.5713453040267,24.2307324977211 Q 25.8661772566224,24.1461606678302 26.4539196578629,23.9786583478754 Q 27.0416620591034,23.8111560279206 27.363397554198,23.7026118182473 Q 27.6851330492926,23.594067608574 28.0856266481386,23.4005158405171 Q 28.4861202469846,23.2069640724603 28.7906434867371,23.0321128755026 Q 29.0951667264896,22.8572616785449 29.4236448699602,22.6965438204103 Q 29.7521230134308,22.5358259622757 30.0302917030199,22.2744944736592 Q 30.308460392609,22.0131629850427 30.4001820774983,21.8999980454799 Q 30.4919037623875,21.786833105917 30.7687595198309,21.4628213624355 Q 31.0456152772743,21.138809618954 31.2383036737974,20.9332546923232 Q 31.4309920703205,20.7276997656923 31.533174952624,20.4091004146771 Q 31.6353578349274,20.0905010636619 31.613177897374,19.4939038351557 Q 31.5909979598206,18.8973066066496 31.548516866046,18.597149229741 Q 31.5060357722715,18.2969918528325 31.450802318758,18.0411912653845 Q 31.3955688652445,17.7853906779366 31.3025660461816,17.3249681081564 Q 31.2095632271187,16.8645455383763 31.1186260274233,16.4350256093009 Q 31.0276888277278,16.0055056802256 30.8842829957764,15.4829859482045 Q 30.740877163825,14.9604662161835 30.5603456070229,14.4663268810098 Q 30.3798140502208,13.9721875458361 30.2777663374274,13.7765295527475 Q 30.1757186246341,13.580871559659 30.025801396446,13.2073243903088 Q 29.8758841682579,12.8337772209587 29.7470399459694,12.5160667243256 Q 29.6181957236809,12.1983562276924 29.5573241424257,11.9202982352501 Q 29.4964525611705,11.6422402428078 29.4592479401428,11.4587568404776 Q 29.422043319115,11.2752734381474 29.4800918514282,11.3027086410102 Q 29.5381403837414,11.330143843873 29.8803235833791,11.4285801458422 Q 30.2225067830167,11.5270164478114 30.3237006424222,11.4860690053837 Q 30.4248945018276,11.445121562956 30.7615813202919,11.3075473393523 Q 31.0982681387562,11.1699731157487 31.4244451693315,10.9186571356753 Q 31.7506221999068,10.6673411556018 31.9113252475969,10.4569309642629 Q 32.0720282952869,10.246520772924 32.1873900265199,10.06384648796 Q 32.302751757753,9.88117220299606 32.3919559431458,9.4972497483819 Q 32.4811601285386,9.11332729376775 32.5968532765852,8.44787222266797 Q 32.7125464246317,7.78241715156819 32.7409484552294,7.35729071264262 Q 32.769350485827,6.93216427371705 32.7873407937178,6.32001706786455 Q 32.8053311016086,5.70786986201204 32.7519572550964,5.30037926555978 Q 32.6985834085842,4.89288866910752 32.6583776641502,4.75986473486869 Q 32.6181719197161,4.62684080062985 32.513957528142,4.68067695124456 Q 32.4097431365679,4.73451310185926 32.0299042836553,4.89978230914556 Q 31.6500654307427,5.06505151643187 31.5100458902063,5.13240405646847 Q 31.3700263496698,5.19975659650506 30.9396302237593,5.4420164351198 Q 30.5092340978488,5.68427627373453 30.2892229766186,5.82872642388275 Q 30.0692118553883,5.97317657403097 29.6954979056937,6.22138245053188 Q 29.3217839559991,6.46958832703279 29.0130278148633,6.68667690400578 Q 28.7042716737274,6.90376548097877 28.4648041930468,7.06442018490723 Q 28.2253367123661,7.2250748888357 27.9990088833724,7.34779145427644 Q 27.7726810543787,7.47050801971718 27.3836820658511,7.68601895484539 Q 26.9946830773236,7.90152988997359 26.6460422312764,8.10103050592054 Q 26.2974013852293,8.30053112186749 26.0323875188047,8.41014154018375 Q 25.7673736523801,8.51975195850001 25.3856756672662,8.56086196072207 Q 25.0039776821523,8.60197196294413 24.7482509219836,8.57932057977506 Q 24.492524161815,8.55666919660599 24.0858251961872,8.465823607125 Q 23.6791262305594,8.37497801764401 23.1911787283915,8.34685665548167 Q 22.7032312262236,8.31873529331933 22.1809040729974,8.31957862287857 Q 21.6585769197711,8.3204219524378 21.4721663685793,8.35387554987863 Q 21.2857558173876,8.38732914731946 20.7962302606535,8.47077754796286 Q 20.3067047039195,8.55422594860626 20.0195287173647,8.59510100052347 Q 19.7323527308099,8.63597605244069 19.3806673326498,8.65822539127931 Q 19.0289819344897,8.68047473011793 18.7048161086649,8.58579219951564 Q 18.3806502828401,8.49110966891335 18.0814701421275,8.36059339463156 Q 17.7822900014149,8.23007712034978 17.3774694576871,8.0263544337481 Q 16.9726489139593,7.82263174714643 16.6761399194312,7.672866933332 Q 16.3796309249032,7.52310211951756 16.1385324738866,7.36950631928374 Q 15.8974340228701,7.21591051904993 15.5792873016404,7.01842762754808 Q 15.2611405804107,6.82094473604622 14.9088704671461,6.61092475937839 Q 14.5566003538815,6.40090478271055 14.2141910768238,6.19464722276067 Q 13.8717817997661,5.98838966281078 13.5801769823093,5.77727071296064 Q 13.2885721648524,5.56615176311049 12.946126483996,5.32995038762686 Q 12.6036808031395,5.09374901214323 12.5035509114403,5.00510514498693 Q 12.4034210197411,4.91646127783063 12.0778812309217,4.71812780429871 Q 11.7523414421023,4.51979433076679 11.4866488293857,4.52593266659576 Q 11.2209562166692,4.53207100242473 11.1885921371,4.70694462941352 Q 11.1562280575308,4.8818182564023 11.1172850079275,5.45730688581001 Q 11.0783419583241,6.03279551521772 11.0674353000091,6.47735877590131 Q 11.056528641694,6.9219220365849 11.1014397900034,7.49312118705391 Q 11.1463509383129,8.06432033752292 11.2166043598399,8.4776040963375 Q 11.2868577813668,8.89088785515208 11.4436286654992,9.33802229420423 Q 11.6003995496316,9.78515673325637 11.788635627501,10.0841063171784 Q 11.9768717053704,10.3830559011004 12.1134358526852,10.5665279505502 Q 12.25,10.75 12.5188080320746,11.0044810061538 Q 12.7876160641492,11.2589620123077 13.106429560014,11.3522188089158 Q 13.4252430558788,11.4454756055239 13.6481036696458,11.4310270104585 Q 13.8709642834128,11.4165784153932 14.0721267967937,11.3538595026959 Q 14.2732893101747,11.2911405899986 14.4451572915458,11.2635202528099 Q 14.617025272917,11.2358999156211 14.5505976586955,11.4381666839766 Q 14.4841700444739,11.6404334523321 14.3715306851647,11.9381411106736 Q 14.2588913258556,12.2358487690151 14.1057385212827,12.5778345970392 Q 13.9525857167098,12.9198204250633 13.8167414088113,13.2511694724095 Q 13.6808971009128,13.5825185197557 13.5891454732752,13.9188544754783 Q 13.4973938456375,14.255190431201 13.3757060987412,14.7015864026973 Q 13.254018351845,15.1479823741936 13.1336045649117,15.5696674727402 Q 13.0131907779785,15.9913525712869 12.8973948391608,16.3630862642257 Q 12.7815989003431,16.7348199571645 12.6291429626309,17.230978222846 Q 12.4766870249187,17.7271364885276 12.4402072080424,18.000957330602 Q 12.403727391166,18.2747781726763 12.4387871944352,18.645931358488 Q 12.4738469977043,19.0170845442997 12.5130994374983,19.5416620260706 Q 12.5523518772923,20.0662395078415 12.6224538203957,20.3566633716315 Q 12.6925557634991,20.6470872354215 12.8034452643727,20.8605483953075 Q 12.9143347652463,21.0740095551936 13.1250976765296,21.3403950924824 Q 13.3358605878129,21.6067806297712 13.6146405143324,21.8422981655597 Q 13.8934204408519,22.0778157013482 14.1469297321557,22.288995093073 Q 14.4004390234595,22.5001744847978 14.7156991120268,22.70174519535 Q 15.0309592005941,22.9033159059022 15.2832985056021,23.029549285434 Q 15.5356378106101,23.1557826649657 16.0657814658495,23.3790727868055 Q 16.5959251210889,23.6023629086452 16.8153221728584,23.6680127033233 Q 17.0347192246279,23.7336624980013 17.5846161703915,23.9259019937545 Q 18.1345131161551,24.1181414895077 18.4375915748533,24.2396563167228 Q 18.7406700335516,24.3611711439379 19.1281095375612,24.4978142371682 Q 19.5155490415709,24.6344573303985 19.7532199226277,24.6578538485199 Q 19.9908908036844,24.6812503666413 20.4620115127296,24.7405415154309 Q 20.9331322217747,24.7998326642205 21.4648743954149,24.8179011129566 Q 21.9966165690551,24.8359695616928 22.4803564827507,24.7786525722319 Q 22.9640963964463,24.721335582771 23.6281875909787,24.640204960662" fill="#010101" fill-opacity="1" />
	<path d="M 11.281000249306,5.08217506903209 Q 11.4695970878096,4.8204395303365 11.6646112299243,4.68460786811058 Q 11.859625372039,4.54877620588465 12.0382670575815,4.68706347278183 Q 12.2169087431239,4.825350739679 12.4937001938786,5.02664486622747 Q 12.7704916446332,5.22793899277595 12.9790747477867,5.36733513747101 Q 13.1876578509401,5.50673128216608 13.6151229227207,5.77928138959305 Q 14.0425879945013,6.05183149702001 14.3706550813493,6.26771043369906 Q 14.6987221681973,6.4835893703781 14.9398188912029,6.6632719896912 Q 15.1809156142086,6.84295460900429 15.3659651199663,6.95407203833064 Q 15.5510146257239,7.06518946765698 15.9870285467417,7.31218610543859 Q 16.4230424677595,7.55918274322021 16.6795429587036,7.70966888607231 Q 16.9360434496477,7.86015502892442 17.3453026768264,8.0456287725459 Q 17.754561904005,8.23110251616738 18.0924761118507,8.38672071308793 Q 18.4303903196963,8.54233891000847 18.8225509661762,8.64213493842615 Q 19.2147116126561,8.74193096684382 19.5911917271284,8.642947573747 Q 19.9676718416008,8.54396418065017 20.1177249144496,8.50509733701129 Q 20.2677779872985,8.46623049337241 20.5604471228425,8.43159701314014 Q 20.8531162583866,8.39696353290787 21.4251664665587,8.37538145677554 Q 21.9972166747307,8.3537993806432 22.4657992459674,8.39534663328451 Q 22.9343818172041,8.43689388592583 23.3906559302777,8.49277958291014 Q 23.8469300433513,8.54866527989445 24.0413784492604,8.58780939421282 Q 24.2358268551695,8.62695350853119 24.6659864995936,8.64385270380594 Q 25.0961461440176,8.6607518990807 25.3232995838094,8.58936626744776 Q 25.5504530236011,8.51798063581482 25.8174373381212,8.41776823833597 Q 26.0844216526413,8.31755584085712 26.6197573220973,8.08264467761393 Q 27.1550929915533,7.84773351437074 27.414881762776,7.69479894903246 Q 27.6746705339987,7.54186438369419 27.9780300858736,7.35067592423324 Q 28.2813896377484,7.1594874647723 28.4361753113911,7.05323676246485 Q 28.5909609850338,6.94698606015741 28.9347348373836,6.75476037719858 Q 29.2785086897335,6.56253469423975 29.6012936585065,6.3616540035811 Q 29.9240786272795,6.16077331292246 30.3334681601943,5.87724649827683 Q 30.7428576931091,5.59371968363119 30.9919214979999,5.40325019687449 Q 31.2409853028906,5.21278071011779 31.4928718790437,5.03782598102713 Q 31.7447584551967,4.86287125193648 32.05910872761,4.75134943527582 Q 32.3734590000233,4.63982761861516 32.5022014064899,4.66652994456423 Q 32.6309438129565,4.6932322705133 32.687728706078,4.9890859325482 Q 32.7445135991995,5.28493959458309 32.7796539734256,5.6900818310399 Q 32.8147943476517,6.09522406749671 32.8501263766841,6.50964144649782 Q 32.8854584057166,6.92405882549894 32.8503161400616,7.49592380397181 Q 32.8151738744067,8.06778878244469 32.712115400133,8.52663444830763 Q 32.6090569258593,8.98548011417057 32.4632851117178,9.3428040148715 Q 32.3175132975762,9.70012791557243 32.2233077554432,9.90019004423529 Q 32.1291022133101,10.1002521728982 31.9031474552016,10.3507515332781 Q 31.677192697093,10.6012508936581 31.4136272234207,10.8957514164018 Q 31.1500617497484,11.1902519391455 30.8665429080972,11.3214695365792 Q 30.5830240664459,11.4526871340129 30.3775331647787,11.421614274608 Q 30.1720422631116,11.3905414152032 30.0470913434038,11.3820155012105 Q 29.9221404236961,11.3734895872178 29.7339374950023,11.4197149907622 Q 29.5457345663084,11.4659403943065 29.5536214303533,11.684630880131 Q 29.5615082943982,11.9033213659554 29.5665846924549,12.0343047204529 Q 29.5716610905117,12.1652880749504 29.7670085012876,12.5615681034683 Q 29.9623559120634,12.9578481319863 30.1483537628773,13.3530337829041 Q 30.3343516136912,13.7482194338218 30.4513580632984,14.0436387300927 Q 30.5683645129056,14.3390580263636 30.6465707476992,14.6352522021964 Q 30.7247769824927,14.9314463780292 30.8640711433203,15.497080536325 Q 31.003365304148,16.0627146946209 31.1166081604567,16.5388576317818 Q 31.2298510167654,17.0150005689426 31.3375122123805,17.3440947339843 Q 31.4451734079957,17.6731888990259 31.5273959068127,17.9381982072667 Q 31.6096184056297,18.2032075155076 31.6522946240275,18.5412423419376 Q 31.6949708424252,18.8792771683677 31.6801992381481,19.4842738377556 Q 31.6654276338711,20.0892705071435 31.5303859714618,20.4108509293168 Q 31.3953443090526,20.73243135149 31.2297969548287,20.947487751696 Q 31.0642496006048,21.162544151902 30.8838019842556,21.3685258458688 Q 30.7033543679064,21.5745075398355 30.4369896088899,21.7890946466541 Q 30.1706248498734,22.0036817534727 29.8998236297163,22.217287507184 Q 29.6290224095592,22.4308932608952 29.2969212529061,22.6323763790749 Q 28.9648200962529,22.8338594972547 28.6043039567498,23.0250746585487 Q 28.2437878172467,23.2162898198428 27.8741686191057,23.3858143744342 Q 27.5045494209647,23.5553389290256 27.1656165886568,23.6845032833503 Q 26.826683756349,23.8136676376749 26.414171382221,23.9781459215345 Q 26.001659008093,24.142624205394 25.6265047249333,24.2768773790283 Q 25.2513504417736,24.4111305526626 25.0089915352915,24.4777447872808 Q 24.7666326288095,24.544359021899 24.3380929451497,24.632323587957 Q 23.9095532614899,24.720288154015 23.4922689179039,24.7637472840206 Q 23.0749845743179,24.8072064140263 22.5577550835129,24.8414406240179 Q 22.0405255927078,24.8756748340096 21.6223887285729,24.8634645501971 Q 21.2042518644381,24.8512542663846 20.716716546317,24.8070118184234 Q 20.2291812281959,24.7627693704622 19.7847365355281,24.6364895921487 Q 19.3402918428603,24.5102098138352 18.9737221640703,24.4123008600319 Q 18.6071524852804,24.3143919062286 18.2676642000234,24.2230998944308 Q 17.9281759147663,24.131807882633 17.4848301506065,23.9718164496458 Q 17.0414843864466,23.8118250166587 16.6891690203928,23.704942009187 Q 16.3368536543389,23.5980590017154 15.9554798197434,23.4615092599527 Q 15.5741059851479,23.32495951819 15.0304732276851,23.0222781236038 Q 14.4868404702222,22.7195967290176 14.4039010573895,22.6734693679253 Q 14.3209616445568,22.627342006833 14.1007230899882,22.4471359221833 Q 13.8804845354196,22.2669298375337 13.6040413106287,21.9832760630738 Q 13.3275980858377,21.6996222886139 13.1339979469236,21.4528333167908 Q 12.9403978080095,21.2060443449677 12.7280423576492,20.8160964200814 Q 12.5156869072889,20.426148495195 12.4687316141062,20.2069521433823 Q 12.4217763209235,19.9877557915695 12.4264566349105,19.5051284824755 Q 12.4311369488976,19.0225011733815 12.4666957254657,18.8281031701554 Q 12.5022545020339,18.6337051669293 12.5799845637602,18.1689256377781 Q 12.6577146254865,17.7041461086269 12.7141696638843,17.417560379972 Q 12.7706247022821,17.1309746513171 12.8686769611638,16.6741626553932 Q 12.9667292200456,16.2173506594693 13.0961173598345,15.7639085571055 Q 13.2255054996235,15.3104664547418 13.3537742144155,14.7982948391516 Q 13.4820429292075,14.2861232235614 13.60323561759,14.0122448665554 Q 13.7244283059726,13.7383665095495 13.8520261247943,13.4024182907724 Q 13.979623943616,13.0664700719954 14.101630352252,12.7708367641414 Q 14.223636760888,12.4752034562874 14.3332130055156,12.0268909798304 Q 14.4427892501432,11.5785785033733 14.4073109164461,11.4754468391943 Q 14.3718325827489,11.3723151750152 14.205998515748,11.2916704645807 Q 14.040164448747,11.2110257541463 13.8804863933499,11.3310889650397 Q 13.7208083379529,11.4511521759332 13.4504508769084,11.4282057821358 Q 13.1800934158639,11.4052593883384 12.8142270277029,11.1547989050007 Q 12.448360639542,10.904338421663 12.3220515602487,10.8150863235654 Q 12.1957424809554,10.7258342254678 12.0354801564701,10.4970756300304 Q 11.8752178319847,10.268317034593 11.7001361446805,10.0033252715964 Q 11.5250544573763,9.73833350859971 11.3009774203184,9.30814899879422 Q 11.0769003832605,8.87796448898873 11.0687804249203,8.40468426346997 Q 11.06066046658,7.93140403795121 11.0491661039352,7.4759794608869 Q 11.0376717412903,7.02055488382259 11.0466235708662,6.48454355808652 Q 11.0555754004422,5.94853223235045 11.0739894056222,5.64622142003906 Q 11.0924034108023,5.34391060772767 11.281000249306,5.08217506903209 M 14.6619522576683,21.5191176563183 Q 15.0398347567137,21.598895195743 15.2763419374655,21.473963633022 Q 15.5128491182173,21.349032070301 15.7174506833683,21.1583116449629 Q 15.9220522485194,20.9675912196248 16.1438398879633,20.6548056817112 Q 16.3656275274072,20.3420201437976 16.4609276175433,20.1157943558021 Q 16.5562277076795,19.8895685678067 16.4648522461484,19.7014115448466 Q 16.3734767846174,19.5132545218865 16.2061092130403,19.2706052828676 Q 16.0387416414631,19.0279560438487 15.8370005636357,18.8508350239314 Q 15.6352594858083,18.673714004014 15.3423985732218,18.4732112138175 Q 15.0495376606353,18.2727084236209 14.61731834069,18.4273087764402 Q 14.1850990207447,18.5819091292596 14.0353839636247,18.7997111894887 Q 13.8856689065046,19.0175132497179 13.7621325954153,19.2776882146847 Q 13.638596284326,19.5378631796515 13.5816417216354,19.8879058691151 Q 13.5246871589449,20.2379485585787 13.528121059337,20.4488033099968 Q 13.5315549597291,20.6596580614148 13.7835385335649,20.8680018961863 Q 14.0355221074007,21.0763457309577 14.1597959330118,21.2578429239257 Q 14.2840697586229,21.4393401168936 14.6619522576683,21.5191176563183 M 16.9650129121274,17.350646378723 Q 17.3794403203667,17.4727793799121 17.4764201442485,17.4394157340584 Q 17.5733999681302,17.4060520882048 17.806913838661,17.310359435446 Q 18.0404277091918,17.2146667826873 18.1898260790924,17.0204699006958 Q 18.339224448993,16.8262730187044 18.5688305004471,16.4723435020877 Q 18.7984365519012,16.118413985471 18.6095754515482,15.7320755382742 Q 18.4207143511952,15.3457370910774 18.2387433390488,15.1385498107183 Q 18.0567723269024,14.9313625303592 17.9256904893791,14.7984529292669 Q 17.7946086518558,14.6655433281746 17.21457651771,14.6310421197296 Q 16.6345443835643,14.5965409112845 16.4260945222287,14.5785275789169 Q 16.2176446608932,14.5605142465492 16.0885160300362,14.7017231333078 Q 15.9593873991791,14.8429320200663 15.7536518455907,15.0289271918435 Q 15.5479162920024,15.2149223636207 15.4244438522958,15.5692857417484 Q 15.3009714125893,15.9236491198762 15.3778639381648,16.2247354194288 Q 15.4547564637404,16.5258217189814 15.608641643215,16.6534364268724 Q 15.7625268226897,16.7810511347633 16.1565561632889,17.0047822561487 Q 16.5505855038881,17.228513377534 16.9650129121274,17.350646378723 M 21.8559287158043,23.5111826788977 Q 22.1537497336528,23.61301390506 22.3892807570294,23.5429065531843 Q 22.6248117804061,23.4727992013087 22.8782573598743,23.1952460653883 Q 23.1317029393426,22.917692929468 23.3229534866162,22.6541184086954 Q 23.5142040338899,22.3905438879228 23.6535515200945,22.1552898928781 Q 23.7928990062992,21.9200358978333 23.9275578567712,21.5226600098355 Q 24.0622167072432,21.1252841218376 24.2469466604802,20.6300685425254 Q 24.4316766137172,20.1348529632133 24.5225315107487,19.9504835995964 Q 24.6133864077802,19.7661142359796 24.5125761290896,19.7054518726738 Q 24.411765850399,19.644789509368 24.1951011965611,19.6138621154772 Q 23.9784365427231,19.5829347215863 23.8676421299426,19.575725754409 Q 23.7568477171622,19.5685167872317 23.5045624707439,19.5243710491163 Q 23.2522772243257,19.4802253110009 22.9745780193361,19.3867712775882 Q 22.6968788143466,19.2933172441755 22.3168974691673,19.3225296957581 Q 21.9369161239881,19.3517421473408 21.5330512688824,19.4494458294995 Q 21.1291864137767,19.5471495116582 20.9737323557661,19.528827920715 Q 20.8182782977555,19.5105063297718 20.5392082887302,19.4832152461089 Q 20.2601382797049,19.455924162446 20.0407397676216,19.4088535207714 Q 19.8213412555383,19.3617828790968 19.585294803033,19.399346962437 Q 19.3492483505277,19.4369110457771 19.4488177564397,19.6915916908784 Q 19.5483871623517,19.9462723359797 19.6125238925975,20.1845759078556 Q 19.6766606228434,20.4228794797314 19.7722188069414,20.7906966350755 Q 19.8677769910394,21.1585137904196 20.011958210007,21.5321192529377 Q 20.1561394289747,21.9057247154558 20.3345150725902,22.2585109577379 Q 20.5128907162058,22.6112972000201 20.7572129535289,22.8965347241128 Q 21.0015351908521,23.1817722482056 21.279821444404,23.2955618504705 Q 21.5581076979558,23.4093514527354 21.8559287158043,23.5111826788977 M 21.6561875894403,17.7315751723568 Q 21.7545227341491,17.7841741239695 22.0133588986708,17.7421680999942 Q 22.2721950631925,17.7001620760188 22.4413443651883,17.5208553304935 Q 22.6104936671841,17.3415485849681 22.2549958983751,17.3207114976287 Q 21.899498129566,17.2998744102893 21.78928923859,17.4299831840582 Q 21.6790803476139,17.5600919578271 21.6184663961727,17.6195340892857 Q 21.5578524447316,17.6789762207442 21.6561875894403,17.7315751723568 M 26.5007755602423,17.3519203172365 Q 26.7740464634374,17.4376415717125 27.2683226567255,17.3665958639719 Q 27.7625988500135,17.2955501562313 27.9603874833662,17.1365482975724 Q 28.158176116719,16.9775464389136 28.3245206122866,16.8025312343624 Q 28.4908651078543,16.6275160298112 28.6047426932397,16.3118460330003 Q 28.7186202786251,15.9961760361894 28.513890696987,15.5475782347715 Q 28.3091611153489,15.0989804333537 28.2483427940453,15.0254382573012 Q 28.1875244727417,14.9518960812487 27.8929605932582,14.7835641623689 Q 27.5983967137748,14.6152322434891 27.3874025161261,14.4352096256324 Q 27.1764083184774,14.2551870077756 26.7542565194328,14.4287227959971 Q 26.3321047203881,14.6022585842187 26.1595516070535,14.7513087869744 Q 25.9869984937189,14.9003589897302 25.6746999272086,15.2498421013296 Q 25.3624013606982,15.5993252129291 25.2566038804392,15.7552085657395 Q 25.1508064001802,15.91109191855 25.3612026749406,16.2968194080094 Q 25.5715989497009,16.6825468974689 25.7113015811594,16.8549742199154 Q 25.8510042126179,17.027401542362 26.0392544348325,17.1468003025613 Q 26.2275046570471,17.2661990627605 26.5007755602423,17.3519203172365 M 28.7440314414243,21.4631713992104 Q 29.0095676179088,21.6676306638017 29.2501482902154,21.560892915527 Q 29.4907289625219,21.4541551672524 29.8460139194077,21.2045568492692 Q 30.2012988762936,20.9549585312861 30.3101764702868,20.8132390215473 Q 30.4190540642799,20.6715195118084 30.5097630775172,20.4159205185615 Q 30.6004720907544,20.1603215253145 30.5053546898441,19.8331178067988 Q 30.4102372889338,19.5059140882832 30.3126395103755,19.2348506971832 Q 30.2150417318172,18.9637873060833 29.9348233223997,18.7480715300471 Q 29.6546049129821,18.532355754011 29.343293214464,18.5359147852745 Q 29.0319815159459,18.539473816538 28.6844264796804,18.605758237789 Q 28.336871443415,18.6720426590401 28.0927882293031,18.7658661292299 Q 27.8487050151912,18.8596895994198 27.7099684917007,19.0635263933223 Q 27.5712319682102,19.2673631872248 27.5194258422216,19.7113459071081 Q 27.4676197162329,20.1553286269914 27.517636103069,20.3758218533771 Q 27.5676524899051,20.5963150797627 27.76817003359,20.7392046856644 Q 27.9686875772749,20.882094291566 28.2235914211073,21.0704032130925 Q 28.4784952649397,21.2587121346191 28.7440314414243,21.4631713992104" fill="#eef30c" fill-opacity="1" />
	<path d="M 16.1872400724386,14.722233154507 Q 16.449773400009,14.4965745211214 16.6455725828223,14.4609642207033 Q 16.8413717656356,14.4253539202853 17.2836348232679,14.5063990596421 Q 17.7258978809001,14.5874441989988 17.8775560621592,14.7135948707704 Q 18.0292142434182,14.839745542542 18.1736609706067,15.0681162812133 Q 18.3181076977952,15.2964870198846 18.3353858643784,15.5021611985586 Q 18.3526640309615,15.7078353772326 18.2750673698727,16.1944110291984 Q 18.1974707087839,16.6809866811642 18.0630536872489,16.8917834400278 Q 17.9286366657138,17.1025801988913 17.7785965078643,17.2156660118912 Q 17.6285563500149,17.3287518248911 17.475287587254,17.4333276273954 Q 17.322018824493,17.5379034298998 16.8916578184658,17.5420780884647 Q 16.4612968124385,17.5462527470296 16.1636602301622,17.348050773626 Q 15.8660236478858,17.1498488002223 15.6968866535797,16.8885608708433 Q 15.5277496592737,16.6272729414642 15.5217358584151,16.3214110501327 Q 15.5157220575566,16.0155491588011 15.6002510750726,15.6443765301755 Q 15.6847800925885,15.2732039015499 15.8047434187283,15.1105478447213 Q 15.9247067448682,14.9478917878926 16.1872400724386,14.722233154507 M 16.25,15.5 Q 16.25,15.75 16.5,15.75 Q 16.75,15.75 16.75,15.5 Q 16.75,15.25 16.5,15.25 Q 16.25,15.25 16.25,15.5" fill="#010101" fill-opacity="1" />
	<path d="M 26.1669348859191,14.6342327459758 Q 26.2875614610559,14.4963881214482 26.6142269325451,14.5691926186004 Q 26.9408924040342,14.6419971157527 27.3303040747206,14.7502129237983 Q 27.719715745407,14.858428731844 27.9297650435147,15.0145280481733 Q 28.1398143416223,15.1706273645026 28.3541718452373,15.4090186376865 Q 28.5685293488524,15.6474099108704 28.5960741997853,15.7747757795557 Q 28.6236190507182,15.9021416482409 28.587519263773,16.1893823849686 Q 28.5514194768278,16.4766231216964 28.3911029642115,16.8418806201217 Q 28.2307864515953,17.207138118547 27.8376625656209,17.3242811553992 Q 27.4445386796466,17.4414241922514 27.0603819550005,17.5502759598837 Q 26.6762252303545,17.6591277275161 26.5603484787561,17.5852523345199 Q 26.4444717271577,17.5113769415237 26.0911751915252,17.2901072352438 Q 25.7378786558927,17.068837528964 25.5540350744811,16.838909802505 Q 25.3701914930694,16.6089820760461 25.4307692212138,16.2007125018342 Q 25.4913469493582,15.7924429276224 25.5539124455787,15.5745868871801 Q 25.6164779417992,15.3567308467379 25.8313931262907,15.0644041086207 Q 26.0463083107822,14.7720773705035 26.1669348859191,14.6342327459758 M 27.25,15.5 Q 27.25,15.75 27.5,15.75 Q 27.75,15.75 27.75,15.5 Q 27.75,15.25 27.5,15.25 Q 27.25,15.25 27.25,15.5" fill="#010101" fill-opacity="1" />
	<path d="M 16.25,15.5 Q 16.25,15.25 16.5,15.25 Q 16.75,15.25 16.75,15.5 Q 16.75,15.75 16.5,15.75 Q 16.25,15.75 16.25,15.5" fill="#ffffff" fill-opacity="1" />
	<path d="M 27.25,15.5 Q 27.25,15.25 27.5,15.25 Q 27.75,15.25 27.75,15.5 Q 27.75,15.75 27.5,15.75 Q 27.25,15.75 27.25,15.5" fill="#ffffff" fill-opacity="1" />
	<path d="M 21.8094647208331,17.2534636585931 Q 21.694444918921,17.0550540230144 21.8404201233191,17.0883316528754 Q 21.9863953277173,17.1216092827365 22.1605287740405,17.318573698608 Q 22.3346622203638,17.5155381144795 22.3411121223604,17.6397792083804 Q 22.3475620243571,17.7640203022813 22.2457213143915,17.8097210869588 Q 22.1438806044259,17.8554218716363 22.0341825635855,17.653647582904 Q 21.9244845227452,17.4518732941718 21.8094647208331,17.2534636585931" fill="#010101" fill-opacity="1" />
	<path d="M 14.1775909888337,18.6842588648127 Q 14.3869365679039,18.4204959768897 14.624359715264,18.4533884248596 Q 14.8617828626241,18.4862808728294 15.2524289733567,18.6319610152601 Q 15.6430750840893,18.7776411576907 15.8527963964631,18.9519693918186 Q 16.0625177088368,19.1262976259465 16.1687304444698,19.2950576318754 Q 16.2749431801028,19.4638176378043 16.3880491576626,19.7927457468376 Q 16.5011551352223,20.1216738558708 16.4591772368395,20.4591824132468 Q 16.4171993384567,20.7966909706228 16.3466187922618,20.8583211128639 Q 16.2760382460668,20.9199512551049 15.9150423768338,21.1320471754039 Q 15.5540465076007,21.3441430957029 15.2445824251892,21.3710721277439 Q 14.9351183427778,21.3980011597848 14.7293877199022,21.3647986169333 Q 14.5236570970265,21.3315960740818 14.3077856451833,21.1407006320442 Q 14.0919141933401,20.9498051900066 13.867206430612,20.7503435892578 Q 13.6424986678839,20.550881988509 13.4955731227799,20.3151057673397 Q 13.3486475776758,20.0793295461705 13.4971759413589,19.7305552813832 Q 13.6457043050419,19.381781016596 13.8069748574027,19.1649013846658 Q 13.9682454097635,18.9480217527356 14.1775909888337,18.6842588648127" fill="#ff0000" fill-opacity="1" />
	<path d="M 28.1569220849054,18.7749925302167 Q 28.5658354733911,18.4919718968412 28.8386135680024,18.3421186449843 Q 29.1113916626137,18.1922653931273 29.3443713331802,18.3346603714557 Q 29.5773510037467,18.477055349784 29.7304821688067,18.6326181452349 Q 29.8836133338667,18.7881809406859 30.1063323613402,19.0691854874344 Q 30.3290513888137,19.3501900341828 30.4265961497971,19.5738857979939 Q 30.5241409107806,19.797581561805 30.4023882709862,20.1845184986 Q 30.2806356311918,20.571455435395 30.0486895569128,20.7715992513795 Q 29.8167434826338,20.9717430673641 29.6469162875248,21.175309957174 Q 29.4770890924158,21.378876846984 29.2599045297876,21.4127435598815 Q 29.0427199671593,21.446610272779 28.7581942730214,21.4646962098322 Q 28.4736685788835,21.4827821468854 28.2583269627978,21.2527495943081 Q 28.0429853467122,21.0227170417308 27.833212830165,20.7877731350194 Q 27.6234403136179,20.552829228308 27.4838629429212,20.2728224089766 Q 27.3442855722244,19.9928155896453 27.4456372102469,19.595093902885 Q 27.5469888482694,19.1973722161247 27.6474987723445,19.1276926898585 Q 27.7480086964197,19.0580131635922 28.1569220849054,18.7749925302167" fill="#ff0000" fill-opacity="1" />
	<path d="M 19.2144252257547,19.7105430511981 Q 19.0765395771952,19.5338553980267 19.3242704073546,19.5050418110355 Q 19.572001237514,19.4762282240443 19.9087571705325,19.525168920908 Q 20.245513103551,19.5741096177716 20.5495354405369,19.5365350798408 Q 20.8535577775229,19.49896054191 20.9947167544135,19.3492303500996 Q 21.1358757313042,19.1995001582892 21.5453497923074,19.2669065391025 Q 21.9548238533106,19.3343129199158 22.4270391688575,19.3793600392548 Q 22.8992544844045,19.4244071585938 23.0296909373566,19.4333352487282 Q 23.1601273903088,19.4422633388626 23.4028671023391,19.4137710284448 Q 23.6456068143694,19.385278718027 23.9806295129439,19.3562707076984 Q 24.3156522115183,19.3272626973699 24.4832157031846,19.4131888745356 Q 24.6507791948508,19.4991150517013 24.5964991349187,19.703584981333 Q 24.5422190749865,19.9080549109648 24.4213401548838,20.2235798310307 Q 24.3004612347812,20.5391047510966 24.2260732030152,20.747957617451 Q 24.1516851712492,20.9568104838053 23.9895544573907,21.3793916860907 Q 23.8274237435322,21.8019728883761 23.5985809336293,22.2294258781962 Q 23.3697381237264,22.6568788680164 23.1628810452415,22.938801282901 Q 22.9560239667567,23.2207236977856 22.8126125451236,23.4207556392861 Q 22.6692011234906,23.6207875807866 22.3285666844824,23.6538444442692 Q 21.9879322454743,23.6869013077518 21.7801879090689,23.6591102307297 Q 21.5724435726634,23.6313191537076 21.1402052583651,23.3363988973544 Q 20.7079669440668,23.0414786410013 20.5198582735995,22.8950038684218 Q 20.3317496031321,22.7485290958423 20.2117186743239,22.3153478624021 Q 20.0916877455156,21.882166628962 19.9387542139745,21.4944405125836 Q 19.7858206824333,21.1067143962051 19.6836955331947,20.7076080109785 Q 19.581570383956,20.3085016257518 19.4669406291351,20.0978661650607 Q 19.3523108743142,19.8872307043696 19.2144252257547,19.7105430511981 M 21.6810993910155,22.5610507621307 Q 21.8969210590105,22.6495638267484 22.1902505051998,22.605737918455 Q 22.483579951389,22.5619120101616 22.5080022985677,22.2910353011585 Q 22.5324246457463,22.0201585921553 22.4883067398278,21.8397443792037 Q 22.4441888339092,21.659330166252 22.1259626121905,21.5470004710297 Q 21.8077363904718,21.4346707758073 21.6158922696444,21.5345928495678 Q 21.4240481488169,21.6345149233283 21.3102040968068,21.9053588121456 Q 21.1963600447967,22.1762027009629 21.3308188839086,22.3243701992379 Q 21.4652777230205,22.4725376975129 21.6810993910155,22.5610507621307" fill="#010101" fill-opacity="1" />
	<path d="M 21.4151827639331,21.7836591804382 Q 21.6021751444681,21.5459751626109 22.0576931543451,21.5432955163034 Q 22.5132111642222,21.540615869996 22.6781716116777,21.6658256687123 Q 22.8431320591332,21.7910354674286 22.7824081144505,21.944382035817 Q 22.7216841697677,22.0977286042053 22.5497451760689,22.3904530094077 Q 22.37780618237,22.6831774146101 22.2479876449788,22.6644454160889 Q 22.1181691075876,22.6457134175676 21.8415148647754,22.5440543932405 Q 21.5648606219631,22.4423953689134 21.3965255026806,22.2318692835895 Q 21.2281903833981,22.0213431982656 21.4151827639331,21.7836591804382" fill="#ff0000" fill-opacity="1" />
</svg>
