<svg xmlns="http://www.w3.org/2000/svg" width="22px" height="32px">
	<path d="M 0,0.5 L 0,0 L 0.5,0 L 1,0 L 1.5,0 L 2,0 L 2.5,0 L 3,0 L 3.5,0 L 4,0 L 4.5,0 L 5,0 L 5.5,0 L 6,0 L 6.5,0 L 7,0 L 7.5,0 L 8,0 L 8.5,0 L 9,0 L 9.5,0 L 10,0 L 10.5,0 L 11,0 L 11.5,0 L 12,0 L 12.5,0 L 13,0 L 13.5,0 L 14,0 L 14.5,0 L 15,0 L 15.5,0 L 16,0 L 16.5,0 L 17,0 L 17.5,0 L 18,0 L 18.5,0 L 19,0 L 19.5,0 L 20,0 L 20.5,0 L 21,0 L 21.5,0 L 22,0 L 22,0.5 L 22,1 L 22,1.5 L 22,2 L 22,2.5 L 22,3 L 22,3.5 L 22,4 L 22,4.5 L 22,5 L 22,5.5 L 22,6 L 22,6.5 L 22,7 L 22,7.5 L 22,8 L 22,8.5 L 22,9 L 22,9.5 L 22,10 L 22,10.5 L 22,11 L 22,11.5 L 22,12 L 22,12.5 L 22,13 L 22,13.5 L 22,14 L 22,14.5 L 22,15 L 22,15.5 L 22,16 L 22,16.5 L 22,17 L 22,17.5 L 22,18 L 22,18.5 L 22,19 L 22,19.5 L 22,20 L 22,20.5 L 22,21 L 22,21.5 L 22,22 L 22,22.5 L 22,23 L 22,23.5 L 22,24 L 22,24.5 L 22,25 L 22,25.5 L 22,26 L 22,26.5 L 22,27 L 22,27.5 L 22,28 L 22,28.5 L 22,29 L 22,29.5 L 22,30 L 22,30.5 L 22,31 L 22,31.5 L 22,32 L 21.5,32 L 21,32 L 20.5,32 L 20,32 L 19.5,32 L 19,32 L 18.5,32 L 18,32 L 17.5,32 L 17,32 L 16.5,32 L 16,32 L 15.5,32 L 15,32 L 14.5,32 L 14,32 L 13.5,32 L 13,32 L 12.5,32 L 12,32 L 11.5,32 L 11,32 L 10.5,32 L 10,32 L 9.5,32 L 9,32 L 8.5,32 L 8,32 L 7.5,32 L 7,32 L 6.5,32 L 6,32 L 5.5,32 L 5,32 L 4.5,32 L 4,32 L 3.5,32 L 3,32 L 2.5,32 L 2,32 L 1.5,32 L 1,32 L 0.5,32 L 0,32 L 0,31.5 L 0,31 L 0,30.5 L 0,30 L 0,29.5 L 0,29 L 0,28.5 L 0,28 L 0,27.5 L 0,27 L 0,26.5 L 0,26 L 0,25.5 L 0,25 L 0,24.5 L 0,24 L 0,23.5 L 0,23 L 0,22.5 L 0,22 L 0,21.5 L 0,21 L 0,20.5 L 0,20 L 0,19.5 L 0,19 L 0,18.5 L 0,18 L 0,17.5 L 0,17 L 0,16.5 L 0,16 L 0,15.5 L 0,15 L 0,14.5 L 0,14 L 0,13.5 L 0,13 L 0,12.5 L 0,12 L 0,11.5 L 0,11 L 0,10.5 L 0,10 L 0,9.5 L 0,9 L 0,8.5 L 0,8 L 0,7.5 L 0,7 L 0,6.5 L 0,6 L 0,5.5 L 0,5 L 0,4.5 L 0,4 L 0,3.5 L 0,3 L 0,2.5 L 0,2 L 0,1.5 L 0,1 L 0,0.5 M 14.4158138282263,30.8081445143305 Q 14.8115747357074,30.778248160625 15.028987346929,30.5771148886774 Q 15.2463999581506,30.3759816167299 15.446812086743,30.1170958607363 Q 15.6472242153353,29.8582101047426 15.6706726165352,29.3992991568634 Q 15.694121017735,28.9403882089841 15.6449073022906,28.6654013386766 Q 15.5956935868462,28.3904144683692 15.3685935945802,28.108380348996 Q 15.1414936023143,27.8263462296228 14.9385266656468,27.539917131497 Q 14.7355597289794,27.2534880333713 14.6581505801741,27.0346191910082 Q 14.5807414313689,26.8157503486451 14.5790047982668,26.5518798489307 Q 14.5772681651648,26.2880093492162 14.7510063054219,26.1816444024998 Q 14.9247444456791,26.0752794557834 15.3268399981092,25.7577085552075 Q 15.7289355505393,25.4401376546315 15.9341107851635,25.1915332084482 Q 16.1392860197878,24.942928762265 16.2528012920533,24.7405740167552 Q 16.3663165643189,24.5382192712455 16.4276646575845,24.2415584086227 Q 16.4890127508501,23.9448975459998 16.5030303454565,23.4359388306031 Q 16.5170479400628,22.9269801152064 16.4922886292589,22.6512917422055 Q 16.4675293184549,22.3756033692046 16.4350405487337,22.1206247661301 Q 16.4025517790125,21.8656461630555 16.4539226005803,21.6611096875445 Q 16.5052934221482,21.4565732120334 16.6078075680336,21.0987034191371 Q 16.710321713919,20.7408336262409 16.7892327101909,20.2633034489471 Q 16.8681437064629,19.7857732716532 16.8933717425183,19.4223757143702 Q 16.9185997785738,19.0589781570872 16.9529099900755,18.5076788565529 Q 16.9872202015772,17.9563795560186 17.0724702717608,17.5367205765968 Q 17.1577203419445,17.117061597175 17.3473802767274,16.5756257353994 Q 17.5370402115104,16.0341898736237 17.5932768292694,15.9050251109433 Q 17.6495134470284,15.7758603482628 17.8254137461832,15.389332396829 Q 18.0013140453381,15.0028044453952 18.1078958654755,14.7863584346948 Q 18.2144776856128,14.5699124239944 18.3834411225437,14.2011935956316 Q 18.5524045594746,13.8324747672689 18.7818884020238,13.4067087288279 Q 19.0113722445729,12.9809426903869 19.2676217881754,12.6034193798741 Q 19.5238713317778,12.2258960693613 19.7256544359148,11.9512878709129 Q 19.9274375400517,11.6766796724646 20.0478276295694,11.4723223791096 Q 20.168217719087,11.2679650857546 20.2968194956411,10.8585081211564 Q 20.4254212721951,10.4490511565581 20.4542723741984,10.200104080583 Q 20.4831234762017,9.95115700460792 20.4292935486263,9.7159345284586 Q 20.3754636210508,9.48071205230929 20.2009058293541,9.09409528660779 Q 20.0263480376575,8.70747852090629 19.9075790956419,8.50278475886573 Q 19.7888101536263,8.29809099682518 19.6098581611225,7.87115121446371 Q 19.4309061686187,7.44421143210224 19.3484317791175,7.19626534343523 Q 19.2659573896164,6.94831925476823 19.0775777563756,6.54266428812647 Q 18.8891981231348,6.13700932148472 18.6825856198534,5.72787692789704 Q 18.475973116572,5.31874453430937 18.3030394141926,5.1293630919556 Q 18.1301057118131,4.93998164960182 17.8773802444059,4.75488301189262 Q 17.6246547769986,4.56978437418341 17.232218103737,4.37729573811628 Q 16.8397814304753,4.18480710204915 16.5565620500392,4.05974914194539 Q 16.2733426696031,3.93469118184163 15.829616777927,3.66042894481701 Q 15.3858908862508,3.3861667077924 15.1569748872865,3.23265080336488 Q 14.9280588883222,3.07913489893737 14.6273455050843,2.86835715089965 Q 14.3266321218464,2.65757940286192 13.9569580249171,2.36145034513271 Q 13.5872839279879,2.0653212874035 13.2711454256012,1.81832488219059 Q 12.9550069232145,1.57132847697769 12.82021481029,1.51400121884141 Q 12.6854226973655,1.45667396070514 12.3855641426393,1.38770209902441 Q 12.0857055879131,1.31873023734369 11.6678527939566,1.28436511867184 Q 11.25,1.25 11,1.5 Q 10.75,1.75 10.5,1.75 Q 10.25,1.75 10,1.5 Q 9.75,1.25 9.375,1.125 Q 9,1 8.625,1.125 Q 8.25,1.25 8.01066262473383,1.45828173732538 Q 7.77132524946766,1.66656347465076 7.55723827847151,1.89415132499726 Q 7.34315130747536,2.12173917534376 7.0080032705192,2.48337474362733 Q 6.67285523356304,2.84501031191089 6.58786162188061,3.0936656065896 Q 6.50286801019817,3.34232090126831 6.30073564600932,3.71327925768601 Q 6.09860328182047,4.0842376141037 5.96017993178576,4.33536740731116 Q 5.82175658175105,4.58649720051861 5.58016954328291,4.92509620013302 Q 5.33858250481476,5.26369519974743 5.04931002383205,5.5681824186494 Q 4.76003754284933,5.87266963755138 4.48448076735809,6.13300650546817 Q 4.20892399186684,6.39334337338495 3.90742146469765,6.69825908591657 Q 3.60591893752847,7.00317479844819 3.4950341596536,7.13388300585625 Q 3.38414938177874,7.26459121326431 3.16631619022988,7.51799396996759 Q 2.94848299868101,7.77139672667086 2.77931663351684,7.97905230524091 Q 2.61015026835266,8.18670788381095 2.39084055354043,8.49581149007814 Q 2.1715308387282,8.80491509634532 1.94841024058913,9.14666797963864 Q 1.72528964245007,9.48842086293195 1.64385535842453,9.76812003530474 Q 1.56242107439899,10.0478192076775 1.43194634435091,10.5565439796455 Q 1.30147161430282,11.0652687516135 1.25677760251298,11.5339750767902 Q 1.21208359072315,12.0026814019669 1.3547034504496,12.5513532153803 Q 1.49732331017606,13.1000250287936 1.58447854405245,13.3974254240852 Q 1.67163377792883,13.6948258193768 1.86389103732137,13.977721867927 Q 2.0561482967139,14.2606179164772 2.19530256116195,14.5021509353838 Q 2.33445682561,14.7436839542904 2.62792777104323,14.9525477226777 Q 2.92139871647647,15.161411491065 3.12817453514583,15.3257189110216 Q 3.3349503538152,15.4900263309782 3.78892660104969,15.8165627032304 Q 4.24290284828418,16.1430990754827 4.3293693081729,16.2174309007672 Q 4.41583576806161,16.2917627260516 4.43382733204464,16.6344250945593 Q 4.45181889602766,16.977087463067 4.41456453972592,17.1290759523709 Q 4.37731018342418,17.2810644416749 4.20993855445294,17.471830100652 Q 4.04256692548169,17.6625957596291 3.66386703304661,17.9285946194681 Q 3.28516714061153,18.1945934793072 3.05007434004223,18.3652085790481 Q 2.81498153947293,18.5358236787891 2.43636561892292,18.7777673958464 Q 2.05774969837291,19.0197111129038 1.84630054941345,19.1880067338354 Q 1.63485140045399,19.3563023547671 1.46008784447219,19.8969541428189 Q 1.28532428849038,20.4376059308707 1.29396388952456,20.5799562155816 Q 1.30260349055873,20.7223065002925 1.31314681316174,21.3115029708419 Q 1.32369013576475,21.9006994413914 1.44034232650434,22.3202640354611 Q 1.55699451724393,22.7398286295309 1.63403575931864,22.9979745562877 Q 1.71107700139334,23.2561204830446 1.84225676204299,23.6276141119027 Q 1.97343652269265,23.9991077407608 2.17670054840934,24.3837977253174 Q 2.37996457412604,24.768487709874 2.42892224868011,24.966120065407 Q 2.47787992323417,25.1637524209399 2.63501761301189,25.7206597495105 Q 2.7921553027896,26.2775670780812 2.75611042123922,26.5613608749694 Q 2.72006553968883,26.8451546718577 2.60490738922609,27.2844471866716 Q 2.48974923876335,27.7237397014856 2.44982537892639,27.9503195092316 Q 2.40990151908943,28.1768993169777 2.36052392169276,28.5689346388711 Q 2.31114632429608,28.9609699607645 2.26626964656346,29.4958313660153 Q 2.22139296883084,30.0306927712661 2.44574617973214,30.2213688295609 Q 2.67009939063345,30.4120448878557 2.89131135238163,30.5230131814713 Q 3.1125233141298,30.6339814750869 3.55353395783041,30.6806958013008 Q 3.99454460153102,30.7274101275147 4.44697011966932,30.7925323956786 Q 4.89939563780762,30.8576546638425 5.37383197704858,30.9044837587709 Q 5.84826831628954,30.9513128536992 6.44170187367322,30.9649647903989 Q 7.03513543105691,30.9786167270986 7.47016229508219,30.9781396837687 Q 7.90518915910748,30.9776626404387 8.45259457955374,30.9888313202194 Q 9,31 9.5,31 Q 10,31 10.5,31 Q 11,31 11.5,31 Q 12,31 12.5219319830751,30.9480859138761 Q 13.0438639661501,30.8961718277522 13.5319584434477,30.8671063478941 Q 14.0200529207452,30.838040868036 14.4158138282263,30.8081445143305" fill="#e6daf4" fill-opacity="1" />
	<path d="M 7.98778042345088,1.89645187374388 Q 8.22347301196934,1.78443057359403 8.73226279103885,1.596349156361 Q 9.24105257010835,1.40826773912798 9.49552628505418,1.32913386956399 Q 9.75,1.25 10,1.5 Q 10.25,1.75 10.5,1.75 Q 10.75,1.75 11,1.5 Q 11.25,1.25 11.625,1.125 Q 12,1 12.375,1.125 Q 12.75,1.25 13,1.5 Q 13.25,1.75 13.5,2 Q 13.75,2.25 14,2.5 Q 14.25,2.75 14.5,3 Q 14.75,3.25 14.976174332365,3.53435916845191 Q 15.20234866473,3.81871833690382 15.4849183410045,3.88961478500958 Q 15.7674880172789,3.96051123311534 16.4578677057674,4.15378931980989 Q 17.1482473942559,4.34706740650445 17.4644612984683,4.50254987599447 Q 17.7806752026806,4.65803234548449 17.9129252713932,4.83250748765772 Q 18.0451753401059,5.00698262983094 18.285906378051,5.28676693268319 Q 18.5266374159961,5.56655123553544 18.6465807863088,5.87337688842596 Q 18.7665241566214,6.18020254131649 18.9222070764737,6.60332969016318 Q 19.077889996326,7.02645683900987 19.2926897347114,7.3617669543248 Q 19.5074894730968,7.69707706963973 19.6788070821454,7.96502838084243 Q 19.850124691194,8.23297969204513 19.9694613224859,8.46764573444619 Q 20.0887979537778,8.70231177684726 20.2838856339671,9.07841667050539 Q 20.4789733141563,9.45452156416351 20.5576098397701,9.82980410382957 Q 20.6362463653838,10.2050866434956 20.5071541047397,10.4857438613187 Q 20.3780618440956,10.7664010791417 20.2396906016754,11.0601396428527 Q 20.1013193592552,11.3538782065636 19.9203954126199,11.6155410177845 Q 19.7394714659846,11.8772038290055 19.6176133329247,12.0803856246431 Q 19.4957551998649,12.2835674202808 19.3025889398076,12.5885889350733 Q 19.1094226797504,12.8936104498657 18.9121569107401,13.2748897644167 Q 18.7148911417298,13.6561690789676 18.499712324381,14.0262306575727 Q 18.2845335070321,14.3962922361779 18.1593160893404,14.641471768999 Q 18.0340986716487,14.8866513018201 17.9096093563,15.1588113999326 Q 17.7851200409514,15.4309714980451 17.6393204005211,15.9192017469819 Q 17.4935207600908,16.4074319959187 17.4305200521743,16.7216782535993 Q 17.3675193442579,17.0359245112799 17.252309210716,17.5889785523591 Q 17.137099077174,18.1420325934384 17.0505307598449,18.5147883199166 Q 16.9639624425159,18.8875440463948 16.8385116681287,19.4483123285804 Q 16.7130608937415,20.0090806107661 16.6274681919324,20.317671202533 Q 16.5418754901233,20.6262617942999 16.4919409113317,20.8541326770695 Q 16.44200633254,21.082003559839 16.478095554591,21.3855085987356 Q 16.514184776642,21.6890136376321 16.5825359659014,22.0440942399351 Q 16.6508871551607,22.399174842238 16.6467731473487,22.7153130901699 Q 16.6426591395366,23.0314513381019 16.5700556871633,23.5398961284558 Q 16.4974522347899,24.0483409188098 16.4246785235532,24.4543986728028 Q 16.3519048123164,24.8604564267958 16.1662917470868,25.045162117479 Q 15.9806786818573,25.2298678081622 15.7837261248653,25.3598137113079 Q 15.5867735678734,25.4897596144535 15.3448034119361,25.6668453350334 Q 15.1028332559987,25.8439310556133 14.8872656609222,26.1080813829825 Q 14.6716980658456,26.3722317103516 14.6517684271509,26.5765691445624 Q 14.6318387884562,26.7809065787731 14.7818823786368,27.0278026082217 Q 14.9319259688174,27.2746986376702 15.0617927300915,27.5170894403789 Q 15.1916594913656,27.7594802430875 15.3034734179922,28.0570098015571 Q 15.4152873446188,28.3545393600266 15.5233511336373,28.7592664438459 Q 15.6314149226558,29.1639935276653 15.6005156763017,29.6129945183001 Q 15.5696164299476,30.0619955089348 15.5485773358313,30.3447102534269 Q 15.527538241715,30.627424997919 15.2786252637003,30.6668292092995 Q 15.0297122856857,30.7062334206799 14.4019661948676,30.7954690141699 Q 13.7742201040495,30.8847046076598 13.4383599932193,30.915854767013 Q 13.1024998823891,30.9470049263663 12.5179584189693,30.9668202518506 Q 11.9334169555495,30.9866355773349 11.4667084777747,30.9933177886674 Q 11,31 10.5,31 Q 10,31 9.5,31 Q 9,31 8.5,31 Q 8,31 7.5,31 Q 7,31 6.5,31 Q 6,31 5.54085980901884,30.9780017766941 Q 5.08171961803768,30.9560035533882 4.41234493973309,30.8910190492827 Q 3.74297026142849,30.8260345451771 3.47639833657369,30.7891329049199 Q 3.20982641171889,30.7522312646626 2.84944079989774,30.5937079913419 Q 2.4890551880766,30.4351847180213 2.40565224467691,30.1452979763657 Q 2.32224930127722,29.8554112347101 2.34673722322762,29.5023075011861 Q 2.37122514517802,29.149203767662 2.45197365064033,28.8176948424395 Q 2.53272215610264,28.4861859172169 2.59065819809477,28.0682725558608 Q 2.6485942400869,27.6503591945047 2.66664652598167,27.2397920119063 Q 2.68469881187645,26.8292248293079 2.6717986895164,26.4518528426482 Q 2.65889856715635,26.0744808559886 2.57372549444494,25.6265409932537 Q 2.48855242173353,25.1786011305189 2.41051178956894,24.9726590102528 Q 2.33247115740435,24.7667168899866 2.15925818482496,24.392094476884 Q 1.98604521224557,24.0174720637814 1.83049212050647,23.6752093427583 Q 1.67493902876737,23.3329466217351 1.55215280153307,22.9897502631309 Q 1.42936657429876,22.6465539045267 1.36613874975179,22.3470843170523 Q 1.30291092520482,22.047614729578 1.26006351726133,21.4969786704155 Q 1.21721610931783,20.946342611253 1.26951742525306,20.4349648905906 Q 1.3218187411883,19.9235871699283 1.42306743677965,19.7030863203763 Q 1.524316132371,19.4825854708243 1.81334022912818,19.2094839486338 Q 2.10236432588537,18.9363824264432 2.34806425553889,18.823104745626 Q 2.59376418519242,18.7098270648088 3.02916839382572,18.4829265557849 Q 3.46457260245903,18.2560260467609 3.72716581319792,18.0497376644284 Q 3.98975902393682,17.843449282096 4.26662396931398,17.5838778779534 Q 4.54348891469114,17.3243064738108 4.52230298508532,17.1402645217675 Q 4.50111705547949,16.9562225697242 4.40204209576573,16.8315136924009 Q 4.30296713605196,16.7068048150776 4.08935168421681,16.4825341554452 Q 3.87573623238166,16.2582634958128 3.59490806360608,15.9913952450985 Q 3.31407989483051,15.7245269943841 2.98981336500836,15.4100501363154 Q 2.66554683518621,15.0955732782467 2.46373658779833,14.8694719568277 Q 2.26192634041045,14.6433706354086 2.14993507704345,14.4982993145524 Q 2.03794381367645,14.3532279936961 1.82731098886105,14.005191035542 Q 1.61667816404564,13.657154077388 1.53349610198452,13.3628702233489 Q 1.4503140399234,13.0685863693098 1.34161734628916,12.6230722886094 Q 1.23292065265492,12.1775582079089 1.26017356318081,11.6934086722931 Q 1.28742647370669,11.2092591366774 1.35840301558301,10.8150835258724 Q 1.42937955745933,10.4209079150673 1.59266150997377,10.0016154948397 Q 1.75594346248822,9.58232307461199 1.85090816878407,9.36670895255134 Q 1.94587287507992,9.15109483049069 2.20602210806963,8.73763451998245 Q 2.46617134105934,8.3241742094742 2.66362851091597,8.05054140215532 Q 2.86108568077259,7.77690859483644 3.05076863010799,7.5851077839139 Q 3.24045157944339,7.39330697299135 3.47525756941771,7.20103527373333 Q 3.71006355939203,7.00876357447531 4.0485643973742,6.72908918072544 Q 4.38706523535637,6.44941478697556 4.63911102477071,6.28146771922194 Q 4.89115681418504,6.11352065146832 5.23242585124444,5.77832435011669 Q 5.57369488830385,5.44312804876507 5.73429003394991,5.15750198850641 Q 5.89488517959597,4.87187592824776 6.05737341235852,4.50235851676662 Q 6.21986164512106,4.13284110528549 6.40963779775642,3.75979185826601 Q 6.59941395039177,3.38674261124653 6.76717900858129,3.12477250164364 Q 6.93494406677081,2.86280239204075 7.18771244343962,2.61678414884572 Q 7.44048082010843,2.37076590565069 7.59628432752042,2.18961953977222 Q 7.75208783493242,2.00847317389374 7.98778042345088,1.89645187374388 M 7.60338584411232,29.6949900652433 Q 7.98699670860637,29.6855586681331 8.1366454837607,29.527411233501 Q 8.28629425891502,29.3692637988689 8.44108670138106,29.063630386751 Q 8.5958791438471,28.7579969746331 8.54670129779689,28.4912880602892 Q 8.49752345174669,28.2245791459454 8.40361340909899,27.9530009864029 Q 8.30970336645129,27.6814228268603 8.09461002233769,27.2944775610147 Q 7.87951667822409,26.9075322951691 7.72685601852222,26.6941542585004 Q 7.57419535882035,26.4807762218317 7.27871651547203,26.4522077059151 Q 6.9832376721237,26.4236391899985 6.60164446973435,26.4020778726971 Q 6.22005126734499,26.3805165553957 5.54683933627528,26.3905623344253 Q 4.87362740520557,26.4006081134549 4.65872786696243,26.53309224856 Q 4.44382832871928,26.665576383665 4.25671550515421,26.8989766308335 Q 4.06960268158913,27.1323768780019 3.93096801225025,27.4729171780219 Q 3.79233334291137,27.813457478042 3.66555345200028,28.1912151617306 Q 3.53877356108919,28.5689728454193 3.50059540887042,28.6811120284808 Q 3.46241725665164,28.7932512115423 3.41099536059703,29.1302267775779 Q 3.35957346454243,29.4672023436135 3.630183634176,29.5155188073476 Q 3.90079380380958,29.5638352710818 4.44085803424397,29.6418629975311 Q 4.98092226467837,29.7198907239804 5.58602105806862,29.722777303412 Q 6.19111985145887,29.7256638828435 6.70544741553857,29.7150426725985 Q 7.21977497961827,29.7044214623535 7.60338584411232,29.6949900652433 M 9.69756385160613,26.4682237831437 Q 9.88197297533367,26.6015263962217 10.0835425364301,26.581296850121 Q 10.2851120975265,26.5610673040203 10.3608451775151,26.45661591978 Q 10.4365782575037,26.3521645355398 10.2261887322127,26.1301132377435 Q 10.0157992069217,25.9080619399473 9.82285965749661,25.6453353790661 Q 9.62992010807149,25.3826088181849 9.44873645130952,25.1202051566775 Q 9.26755279454754,24.8578014951701 8.99905888375317,24.6735465359169 Q 8.73056497295879,24.4892915766636 8.36528248647939,24.2446457883318 L 8,24 L 7.84281226868872,23.5726907466644 Q 7.68562453737744,23.1453814933288 7.5788104685274,22.8468031025128 Q 7.47199639967736,22.5482247116967 7.12393642647608,22.3757260484275 Q 6.7758764532748,22.2032273851583 6.40539404384577,22.0370477188435 Q 6.03491163441674,21.8708680525286 5.71436752586829,21.707985213065 Q 5.39382341731983,21.5451023736014 5.12117380639942,21.3646800240628 Q 4.84852419547901,21.1842576745242 4.61017589485747,21.0300816999656 Q 4.37182759423593,20.8759057254069 4.07177338627366,20.7155196056832 Q 3.7717191783114,20.5551334859594 3.35064575016761,20.5213506153768 Q 2.92957232202383,20.4875677447941 2.64815498237645,20.5823960086947 Q 2.36673764272907,20.6772242725954 2.34501290459652,20.8799304797453 Q 2.32328816646397,21.0826366868953 2.3186391452647,21.4635343161475 Q 2.31399012406542,21.8444319453996 2.42474660791911,22.1806525271645 Q 2.53550309177279,22.5168731089294 2.72371427789271,22.9402545735078 Q 2.91192546401263,23.3636360380862 3.06215213178059,23.6359883184829 Q 3.21237879954855,23.9083405988795 3.4245807037163,24.2099326807761 Q 3.63678260788404,24.5115247626726 3.88913855283248,24.69724900046 Q 4.14149449778092,24.8829732382474 4.50424525240867,24.884010313083 Q 4.86699600703642,24.8850473879185 5.3618584795561,24.9235590481775 Q 5.85672095207578,24.9620707084365 6.48845333919788,25.0208508480088 Q 7.12018572631999,25.0796309875812 7.47702371974104,25.113271891134 Q 7.83386171316209,25.1469127946868 8.11895582772277,25.3363661018486 Q 8.40404994228345,25.5258194090104 8.66007545839417,25.7518396014065 Q 8.91610097450488,25.9778597938027 9.21462785119174,26.1563904819341 Q 9.51315472787859,26.3349211700656 9.69756385160613,26.4682237831437 M 6.39127437945747,20.6185607486957 Q 6.7879413120276,20.7204119929091 7.12393247938549,20.6104612442073 Q 7.45992364674337,20.5005104955055 7.7236483243637,20.299048082693 Q 7.98737300198403,20.0975856698805 8.11145647821201,19.9418871193213 Q 8.23553995443999,19.7861885687621 8.19562577567209,19.6660059480246 Q 8.15571159690419,19.545823327287 8.08574523495545,19.4449060597433 Q 8.01577887300671,19.3439887921996 7.93707589650856,19.3556035557322 Q 7.85837292001041,19.3672183192648 7.45815290264234,19.5705759093145 Q 7.05793288527426,19.7739334993642 6.58231129032551,19.7121528180547 Q 6.10668969537676,19.6503721367453 5.87463436901436,19.6019588351666 Q 5.64257904265196,19.5535455335879 5.30728705678242,19.5038708327938 Q 4.97199507091287,19.4541961319997 4.71325400566019,19.370058395752 Q 4.4545129404075,19.2859206595043 4.56235446385101,19.5329240345608 Q 4.67019598729452,19.7799274096172 4.82185733679652,19.9553270674161 Q 4.97351868629852,20.130726725215 5.11152223764757,20.2008092844979 Q 5.24952578899661,20.2708918437808 5.62206661794198,20.3938006741315 Q 5.99460744688735,20.5167095044822 6.39127437945747,20.6185607486957 M 6.33147397591685,18.7186715838761 Q 6.99620622274056,18.6740138036194 7.26553243201484,18.5466844908296 Q 7.53485864128911,18.4193551780397 7.75610337039973,18.2129354423787 Q 7.97734809951035,18.0065157067177 8.16077553424322,17.7244608915525 Q 8.34420296897609,17.4424060763872 8.39045428985984,17.2820791226845 Q 8.43670561074359,17.1217521689817 8.12766046295416,17.158783486507 Q 7.81861531516473,17.1958148040324 7.30113193494088,17.2862162768311 Q 6.78364855471703,17.3766177496298 6.53967749387476,17.4945277090857 Q 6.2957064330325,17.6124376685416 6.08383157137261,17.8031884161421 Q 5.87195670971272,17.9939391637426 5.7616750194338,18.1467053902844 Q 5.65139332915488,18.2994716168262 5.56620087716319,18.5060797007783 Q 5.48100842517149,18.7126877847303 5.57387507713231,18.7380085744315 Q 5.66674172909313,18.7633293641328 6.33147397591685,18.7186715838761 M 13.4663305637212,29.6397733656118 Q 14.1234933607622,29.5737219205237 14.3369472178279,29.4478627595284 Q 14.5504010748935,29.3220035985331 14.6299479793256,29.0526797401207 Q 14.7094948837578,28.7833558817084 14.5561692227464,28.6618648515313 Q 14.4028435617349,28.5403738213542 14.1093514158492,28.4118388832311 Q 13.8158592699635,28.283303945108 13.4271865109865,28.0847659951063 Q 13.0385137520095,27.8862280451046 12.7015084923834,27.7570203036917 Q 12.3645032327573,27.6278125622789 12.0142402104459,27.5603844881979 Q 11.6639771881346,27.492956414117 11.4609818521531,27.4805794899203 Q 11.2579865161716,27.4682025657237 11.1289932580858,27.7341012828618 L 11,28 L 10.7539175010479,28.232940530542 Q 10.5078350020958,28.465881061084 10.497556629706,28.6939556283499 Q 10.4872782573161,28.9220301956157 10.568129451657,29.3013828209317 Q 10.6489806459979,29.6807354462476 10.9292704641082,29.7154537391164 Q 11.2095602822185,29.7501720319852 11.6061693599826,29.7685573697177 Q 12.0027784377466,29.7869427074501 12.4059731022133,29.746383759075 Q 12.8091677666801,29.7058248106999 13.4663305637212,29.6397733656118 M 13.25,25.5 Q 13.25,25.75 13.5,25.75 Q 13.75,25.75 13.75,25.5 Q 13.75,25.25 13.5,25.25 Q 13.25,25.25 13.25,25.5 M 11.4497082388609,24.6246125138712 Q 12.1183071494421,24.6672687776933 12.330582931588,24.5834435803215 Q 12.5428587137339,24.4996183829497 12.7357255890026,24.3391156890553 Q 12.9285924642713,24.178612995161 13.0560933298518,24.0432630997294 Q 13.1835941954323,23.9079132042978 13.3767644784829,23.4120515141867 Q 13.5699347615335,22.9161898240755 13.6080953207196,22.5336599207815 Q 13.6462558799057,22.1511300174874 13.561091622046,21.6973329008952 Q 13.4759273641863,21.243535784303 13.3137748102896,21.0271541134406 Q 13.1516222563929,20.8107724425782 12.9252801974596,20.454195436098 Q 12.6989381385264,20.0976184296178 12.5295718492554,19.7786697154358 Q 12.3602055599844,19.4597210012538 12.3310010004002,19.2958722865655 Q 12.3017964408159,19.1320235718773 12.150898220408,18.5660117859386 L 12,18 L 12.53125,18 L 13.0625,18 L 13.0625,17.90625 L 13.0625,17.8125 L 13.0741951727305,18.0100087020884 Q 13.0858903454609,18.2075174041768 13.1366951727305,18.3850087020884 L 13.1875,18.5625 L 13.09375,18.28125 L 13,18 L 13.2361217530787,18.2922588962152 Q 13.4722435061574,18.5845177924305 13.6268283744584,18.7866119258276 Q 13.7814132427594,18.9887060592248 14.1307001780105,19.3667469175669 Q 14.4799871132616,19.744787775909 14.6822894208866,19.9214252750023 Q 14.8845917285115,20.0980627740957 15.0689303002758,20.1842734216756 Q 15.25326887204,20.2704840692554 15.4605399656974,20.3633611174246 Q 15.6678110593547,20.4562381655938 15.7229057852693,20.129915976288 Q 15.7780005111839,19.8035937869822 15.8792371608744,19.334271768351 Q 15.9804738105649,18.8649497497198 15.9838727730892,18.4610513940098 Q 15.9872717356134,18.0571530382997 15.9936358678067,17.5285765191499 L 16,17 L 16,17.375 L 16,17.75 L 15.925848641311,17.5036027403856 Q 15.851697282622,17.2572054807712 15.800848641311,17.1286027403856 L 15.75,17 L 15.8125,17.0625 L 15.875,17.125 L 15.7555325644233,16.7109660426322 Q 15.6360651288466,16.2969320852644 15.5844763643793,16.101878281119 Q 15.532887599912,15.9068244769735 15.4887639329775,15.4967940268965 Q 15.444640266043,15.0867635768195 15.5493347992535,14.7428533934838 Q 15.6540293324641,14.3989432101482 15.7331789873928,14.252175653529 Q 15.8123286423214,14.1054080969097 16.064255564096,13.578248572223 Q 16.3161824858706,13.0510890475363 16.3683412039796,12.9179539271772 Q 16.4204999220886,12.7848188068181 16.4859555306837,12.4490547584773 Q 16.5514111392789,12.1132907101364 16.6611737527296,11.3345277703586 Q 16.7709363661804,10.5557648305808 16.7686644549045,10.2210219253476 Q 16.7663925436285,9.88627902011446 16.7010046639543,9.48304024672627 Q 16.63561678428,9.07980147333806 16.5403878851109,8.80593994137293 Q 16.4451589859417,8.53207840940779 16.2069544929709,8.28166420470389 L 15.96875,8.03125 L 15.984375,8.140625 L 16,8.25 L 15.9631730420489,8.10776719891071 Q 15.9263460840978,7.96553439782142 15.8694230420489,7.70151719891071 L 15.8125,7.4375 L 15.90625,7.71875 L 16,8 L 15.7747585574804,7.8518157490945 Q 15.5495171149608,7.70363149818901 15.1407120660079,7.52419002765635 Q 14.7319070170549,7.3447485571237 14.3659535085275,7.17237427856185 L 14,7 L 14,6.5 Q 14,6 14,5.5 L 14,5 L 14,5.375 L 14,5.75 L 13.9469548662354,5.52728761009164 Q 13.8939097324707,5.30457522018327 13.8532048662354,5.12103761009164 L 13.8125,4.9375 L 13.859375,5.015625 L 13.90625,5.09375 L 13.8591287682792,4.63510350485483 Q 13.8120075365584,4.17645700970965 13.6426256120985,3.95777301005217 Q 13.4732436876387,3.73908901039469 13.2209968438193,3.38516950519734 L 12.96875,3.03125 L 12.984375,3.140625 L 13,3.25 L 12.9566411851209,3.05485159535245 Q 12.9132823702417,2.8597031907049 12.8628911851209,2.64860159535245 L 12.8125,2.4375 L 12.90625,2.71875 L 13,3 L 12.7125603038119,2.75050874901377 Q 12.4251206076239,2.50101749802754 12.1349662697222,2.50840290362639 Q 11.8448119318205,2.51578830922525 11.6029469650718,2.50184589001669 Q 11.3610819983231,2.48790347080813 11.1805409991616,2.74395173540406 L 11,3 L 10.5,3 L 10,3 L 9.87598214860236,2.73241402420444 Q 9.75196429720473,2.46482804840888 9.38413188758266,2.41466970487482 Q 9.01629947796059,2.36451136134076 8.71280136958827,2.44162843257265 Q 8.40930326121594,2.51874550380453 8.10317622924488,2.81107654201266 Q 7.79704919727382,3.1034075802208 7.58568487131185,3.31850578188012 Q 7.37432054534989,3.53360398353944 7.32507258188565,3.81781358947294 Q 7.27582461842141,4.10202319540643 7.24709408564241,4.45781928720899 Q 7.21836355286341,4.81361537901155 7.20308241114979,5.31071548955432 Q 7.18780126943616,5.80781560009709 7.36782965151026,6.35376370668121 Q 7.54785803358437,6.89971181326532 7.60438063486567,7.0668395367704 Q 7.66090323614697,7.23396726027549 7.83045161807349,7.61698363013774 L 8,8 L 7.69857798074888,7.88947027250052 Q 7.39715596149776,7.77894054500104 7.06292752479223,7.67241660440802 Q 6.7286990880867,7.56589266381501 6.34147576927975,7.45609004048448 Q 5.95425245047279,7.34628741715396 5.51501041709679,7.40062102129479 Q 5.07576838372078,7.45495462543562 4.7559786105731,7.49089639758617 Q 4.43618883742541,7.52683816973671 4.20471374746632,7.76619599428549 Q 3.97323865750722,8.00555381883427 3.90189750534571,8.21913813757437 Q 3.83055635318419,8.43272245631447 3.83597041725808,8.66317542553911 Q 3.84138448133198,8.89362839476374 3.93631724066599,8.96243919738187 L 4.03125,9.03125 L 4.046875,8.921875 L 4.0625,8.8125 L 4.0380079869678,9.04089289135749 Q 4.01351597393561,9.26928578271497 4.0067579869678,9.50964289135749 L 4,9.75 L 4,9.375 L 4,9 L 4,9.5 L 4,10 L 3.50560574417147,10.2077797635669 Q 3.01121148834294,10.4155595271339 2.75813839308482,10.5361076232971 Q 2.50506529782669,10.6566557194603 2.4647550236386,10.8896778858102 Q 2.42444474945052,11.1227000521602 2.33246638230978,11.82930538938 Q 2.24048801516904,12.5359107265998 2.3035417890018,12.7511640892195 Q 2.36659556283457,12.9664174518392 2.52547353047434,13.3169902843386 Q 2.68435149811411,13.667563116838 2.78411573813489,13.89718047449 Q 2.88387997815566,14.126797832142 3.03633143501302,14.2332864961567 Q 3.18878289187037,14.3397751601715 3.62408979225396,14.5075997967541 Q 4.05939669263754,14.6754244333368 4.52969834631877,14.8377122166684 L 5,15 L 4.625,15 L 4.25,15 L 4.50853745043093,14.9783553124479 Q 4.76707490086186,14.9567106248959 4.97728745043093,14.9471053124479 L 5.1875,14.9375 L 5.078125,14.953125 L 4.96875,14.96875 L 5.16475031734112,15.2488653083923 Q 5.36075063468225,15.5289806167846 5.79121460898487,15.5881704602626 Q 6.22167858328748,15.6473603037407 6.57535835382313,15.6755321530162 Q 6.92903812435877,15.7037040022918 7.36131598048905,15.6351893889998 Q 7.79359383661933,15.5666747757078 8.1358568866031,15.4924960498721 Q 8.47811993658688,15.4183173240364 8.66359598112809,15.2678512967915 Q 8.84907202566931,15.1173852695466 9.17819757898836,14.7829186474417 Q 9.50732313230742,14.4484520253369 9.64425198851119,14.2104779789622 Q 9.78118084471495,13.9725039325876 9.98035973027249,13.4447029694017 Q 10.17953861583,12.9169020062158 10.2906063069138,12.6746843194064 Q 10.4016739979976,12.4324666325969 10.7008369989988,12.2162333162984 L 11,12 L 11.1294091499897,12.3161590696853 Q 11.2588182999794,12.6323181393707 11.3788872698224,12.9913606040605 Q 11.4989562396654,13.3504030687504 11.6146793919567,13.6660128039848 Q 11.7304025442481,13.9816225392193 11.4980973302145,14.1774381299282 Q 11.2657921161809,14.3732537206371 11.1646333473512,14.5306266428521 Q 11.0634745785214,14.6879995650672 10.7398716598353,15.0557897527729 Q 10.4162687411491,15.4235799404786 10.547771678212,15.5429092128379 Q 10.6792746152749,15.6622384851972 10.8396373076374,15.8311192425986 L 11,16 L 11.015625,16.515625 L 11.03125,17.03125 L 11.140625,17.015625 L 11.25,17 L 11.03125,17.03125 Q 10.8125,17.0625 10.625,17.125 L 10.4375,17.1875 L 10.71875,17.09375 L 11,17 L 10.7789565689007,17.1641236254837 Q 10.5579131378014,17.3282472509673 10.3912445304525,17.7856471045691 Q 10.2245759231036,18.2430469581709 10.1700784627675,18.6314011783718 Q 10.1155810024313,19.0197553985728 10.0915870782764,19.4731075591282 Q 10.0675931541215,19.9264597196837 10.0337965770607,20.4632298598419 L 10,21 L 9.80257251139384,21.1965407411086 Q 9.60514502278769,21.3930814822172 9.49780833019657,21.7115916888109 Q 9.39047163760544,22.0301018954046 9.322069013292,22.4668864355618 Q 9.25366638897856,22.903670975719 9.49060345757897,23.3389048093354 Q 9.72754052617939,23.7741386429519 9.87207253658426,23.943969631687 Q 10.0166045469891,24.1138006204221 10.2309420877921,24.3102761592589 Q 10.445279628595,24.5067516980957 10.6131944784374,24.5443539740724 Q 10.7811093282798,24.5819562500492 11.4497082388609,24.6246125138712 M 12,17.875 L 12,18 L 12,18.375 L 12,18.75 L 12,18.5 Q 12,18.25 12,18 L 12,17.75 L 12,17.875 M 16.25,15.5 Q 16.25,15.75 16.5,15.75 Q 16.75,15.75 16.75,15.5 Q 16.75,15.25 16.5,15.25 Q 16.25,15.25 16.25,15.5 M 17.25,13.5 Q 17.25,13.75 17.5,13.75 Q 17.75,13.75 17.75,13.5 Q 17.75,13.25 17.5,13.25 Q 17.25,13.25 17.25,13.5 M 18.6728360598431,10.5699563629785 Q 18.9188771272515,10.7413030256826 19.1686668781534,10.6408101672497 Q 19.4184566290553,10.5403173088167 19.4263100888586,10.1446800355425 Q 19.4341635486619,9.74904276226835 19.3606393857559,9.65924344748922 Q 19.2871152228499,9.56944413271008 19.143557611425,9.28472206635504 L 19,9 L 18.8678312218365,8.85528986841919 Q 18.7356624436731,8.71057973683839 18.5322736970416,8.70296353384757 Q 18.3288849504101,8.69534733085676 18.3417255884987,8.84828638653773 Q 18.3545662265874,9.0012254422187 18.3430996144449,9.4563262731623 Q 18.3316330023024,9.91142710410591 18.3792139973686,10.1550184021902 Q 18.4267949924347,10.3986097002745 18.6728360598431,10.5699563629785 M 16.7795142431997,6.6419705809173 Q 17.1023534833115,6.80633436698994 17.3686957899452,6.71127120706312 Q 17.6350380965788,6.6162080471363 17.6507162295867,6.35304129809516 Q 17.6663943625947,6.08987454905402 17.4870519079499,5.75713907057403 Q 17.3077094533051,5.42440359209404 17.0992335385116,5.30710619810019 Q 16.890757623718,5.18980880410634 16.4888343920705,5.15629816176081 Q 16.0869111604229,5.12278751941528 15.892820316055,5.39647650745883 Q 15.6987294716871,5.67016549550237 15.6405849508956,5.80128540505599 Q 15.582440430104,5.9324053146096 15.8169448057618,6.09094303448961 Q 16.0514491814195,6.24948075436963 16.2540620922537,6.36354377460715 Q 16.4566750030879,6.47760679484467 16.7795142431997,6.6419705809173 M 10.625,3 L 11,3 L 11.125,3 L 11.25,3 L 11,3 Q 10.75,3 10.5,3 L 10.25,3 L 10.625,3 M 9.875,3 L 10,3 L 10.375,3 L 10.75,3 L 10.5,3 Q 10.25,3 10,3 L 9.75,3 L 9.875,3 M 3.625,10 L 4,10 L 4.125,10 L 4.25,10 L 4,10 Q 3.75,10 3.5,10 L 3.25,10 L 3.625,10 M 10,21.125 L 10,21 L 10,20.625 L 10,20.25 L 10,20.5 Q 10,20.75 10,21 L 10,21.25 L 10,21.125 M 15.25,24.5 Q 15.25,24.75 15.5,24.75 Q 15.75,24.75 15.75,24.5 Q 15.75,24.25 15.5,24.25 Q 15.25,24.25 15.25,24.5" fill="#000000" fill-opacity="1" />
	<path d="M 8.1608168298429,2.60241065691337 Q 8.38336390175781,2.37127789645282 8.6916819508789,2.18563894822641 L 9,2 L 8.71875,2.09375 L 8.4375,2.1875 L 8.61441075021374,2.16499843636528 Q 8.79132150042747,2.14249687273055 8.98941075021374,2.10249843636528 L 9.1875,2.0625 L 9.09375,2.0625 L 9,2.0625 L 9.015625,2.546875 L 9.03125,3.03125 L 9.140625,3.015625 L 9.25,3 L 8.95431654559125,3.0680613079629 Q 8.65863309118251,3.13612261592579 8.54806654559125,3.1618113079629 L 8.4375,3.1875 L 8.71875,3.09375 L 9,3 L 8.66725713525888,3.17229577979762 Q 8.33451427051775,3.34459155959524 8.04061524705757,3.50005713058638 Q 7.74671622359739,3.65552270157753 7.3889831117987,3.84338635078876 L 7.03125,4.03125 L 7.015625,4.140625 L 7,4.25 L 7.03649018128879,4.08783553095143 Q 7.07298036257759,3.92567106190285 7.13024018128879,3.68158553095143 L 7.1875,3.4375 L 7.09375,3.71875 L 7,4 L 7.18613634179865,3.74728544038827 Q 7.3722726835973,3.49457088077654 7.65527122076264,3.16405714907523 Q 7.93826975792799,2.83354341737392 8.1608168298429,2.60241065691337" fill="#00f800" fill-opacity="1" />
	<path d="M 9.015625,2.546875 L 9,2.0625 L 8.90625,2.0625 L 8.8125,2.0625 L 8.98001556705801,2.08981420825693 Q 9.14753113411601,2.11712841651385 9.35501556705801,2.15231420825693 L 9.5625,2.1875 L 9.28125,2.09375 L 9,2 L 9.32765888260452,2.23811273238417 Q 9.65531776520904,2.47622546476835 9.82765888260452,2.73811273238417 L 10,3 L 9.5,3 L 9,3 L 9.375,3 L 9.75,3 L 9.44698594374209,3.01738206455129 Q 9.14397188748418,3.03476412910259 8.97823594374209,3.04863206455129 L 8.8125,3.0625 L 8.921875,3.046875 L 9.03125,3.03125 L 9.015625,2.546875 M 9.625,3 L 10,3 L 10.125,3 L 10.25,3 L 10,3 Q 9.75,3 9.5,3 L 9.25,3 L 9.625,3" fill="#00a800" fill-opacity="1" />
	<path d="M 11.2741744825729,2.72497866918565 Q 11.5483489651458,2.44995733837129 11.7741744825729,2.22497866918565 L 12,2 L 11.71875,2.09375 L 11.4375,2.1875 L 11.7123429846658,2.14184693946356 Q 11.9871859693316,2.09619387892713 12.0873429846658,2.07934693946356 L 12.1875,2.0625 L 12.09375,2.0625 L 12,2.0625 L 11.953125,2.578125 L 11.90625,3.09375 L 11.984375,3.140625 L 12.0625,3.1875 L 11.9343487566642,3.15383590751914 Q 11.8061975133285,3.12017181503827 11.5280987566642,3.06008590751914 L 11.25,3 L 11.625,3 L 12,3 L 11.5,3 L 11,3 L 11.2741744825729,2.72497866918565 M 10.875,3 L 11,3 L 11.375,3 L 11.75,3 L 11.5,3 Q 11.25,3 11,3 L 10.75,3 L 10.875,3" fill="#00f800" fill-opacity="1" />
	<path d="M 11.953125,2.578125 L 12,2.0625 L 11.90625,2.0625 L 11.8125,2.0625 L 11.910570395283,2.07537600855593 Q 12.0086407905659,2.08825201711187 12.285570395283,2.13787600855593 L 12.5625,2.1875 L 12.28125,2.09375 L 12,2 L 12.319548783798,2.26683377708161 Q 12.6390975675961,2.53366755416322 12.7346749160426,2.82689695555689 Q 12.8302522644891,3.12012635695055 12.8838761322445,3.59131317847528 L 12.9375,4.0625 L 13,4.125 L 13.0625,4.1875 L 12.9843229816397,4.14033534969335 Q 12.9061459632794,4.0931706993867 12.6718229816397,3.95283534969335 L 12.4375,3.8125 L 12.71875,3.90625 L 13,4 L 12.6577981102026,3.78534699526981 Q 12.3155962204051,3.57069399053962 12.1577981102026,3.28534699526981 L 12,3 L 12.09375,3.28125 L 12.1875,3.5625 L 12.1207491419025,3.47179662894774 Q 12.0539982838051,3.38109325789548 11.9019991419025,3.19054662894774 L 11.75,3 L 11.828125,3.046875 L 11.90625,3.09375 L 11.953125,2.578125" fill="#00a800" fill-opacity="1" />
	<path d="M 7.9884695724123,3.60011971202335 Q 8.37375935888791,3.42175129768287 8.4866298063072,3.4048426815855 Q 8.59950025372649,3.38793406548814 9.17703908471835,3.32478036691308 Q 9.7545779157102,3.26162666833802 10.1931621933499,3.21934224160241 Q 10.6317464709895,3.1770578148668 11.2912259211199,3.39882666807916 Q 11.9507053712503,3.62059552129153 12.2071465810096,3.72525275462552 Q 12.4635877907689,3.8299099879595 12.7105145083731,4.01252180166776 Q 12.9574412259774,4.19513361537602 13.1054777923182,4.40581228044155 Q 13.253514358659,4.61649094550707 13.4211756725487,4.93754000822084 Q 13.5888369864383,5.25858907093461 13.6544596855375,5.64557763286078 Q 13.7200823846367,6.03256619478695 13.8600411923183,6.51628309739348 L 14,7 L 13.6754369106437,7.15171247596816 Q 13.3508738212874,7.30342495193632 13.0218788156155,7.38125928183145 Q 12.6928838099436,7.45909361172658 12.1583967050984,7.54965402127111 Q 11.6239096002532,7.64021443081564 11.3778880919867,7.63536338814202 Q 11.1318665837203,7.6305123454684 10.6917018364494,7.59082281814926 Q 10.2515370891786,7.55113329083013 9.96789470342588,7.5434631169394 Q 9.68425231767318,7.53579294304866 9.51102907819372,7.52453873927567 Q 9.33780583871426,7.51328453550268 9.00223016555641,7.63187717509893 Q 8.66665449239856,7.75046981469517 8.33332724619928,7.87523490734759 L 8,8 L 7.87897506062476,7.64896616576541 Q 7.75795012124951,7.29793233153081 7.62963786130638,7.02586964277475 Q 7.50132560136324,6.75380695401868 7.38768042708988,6.24065421582347 Q 7.27403525281653,5.72750147762825 7.21580837068768,5.36600703312015 Q 7.15758148855883,5.00451258861204 7.07879074427941,4.50225629430602 L 7,4 L 7,4.375 L 7,4.75 L 7.00531403080342,4.60740527038342 Q 7.01062806160684,4.46481054076683 7.03656403080342,4.13865527038342 L 7.0625,3.8125 L 7.046875,3.921875 L 7.03125,4.03125 L 7.31721489296834,3.90486906318192 Q 7.60317978593669,3.77848812636383 7.9884695724123,3.60011971202335 M 8.38325722774992,5.22606777791566 Q 8.40356175684303,5.42295057130882 8.60492652636251,5.45755448376646 Q 8.80629129588198,5.4921583962241 8.77431950474825,5.22210140623949 Q 8.74234771361451,4.95204441625487 8.67361722111754,4.69195382390379 Q 8.60488672862057,4.4318632315527 8.43729578462071,4.4955781231963 Q 8.26970484062084,4.55929301483989 8.31632876963882,4.79423899968119 Q 8.3629526986568,5.02918498452249 8.38325722774992,5.22606777791566 M 10.416240734242,5.20772749643434 Q 10.3720622546957,5.43748945943662 10.5500695879979,5.35697463436261 Q 10.7280769213001,5.2764598092886 10.7346056100724,5.18538630779851 Q 10.7411342988448,5.09431280630842 10.7220131866213,4.77418642908413 Q 10.7028920743977,4.45406005185985 10.5967616933208,4.5357720876803 Q 10.4906313122439,4.61748412350076 10.4755252630161,4.79772482846641 Q 10.4604192137883,4.97796553343207 10.416240734242,5.20772749643434" fill="#f8f8f8" fill-opacity="1" />
	<path d="M 12.96875,3.53125 L 13,3 L 13,3.375 L 13,3.75 L 12.9807582028935,3.50423562928533 Q 12.9615164057871,3.25847125857066 12.9495082028935,3.03548562928533 L 12.9375,2.8125 L 12.953125,2.921875 L 12.96875,3.03125 L 13.1518531923555,3.32116283918407 Q 13.3349563847109,3.61107567836813 13.4455901251969,3.89962628269551 Q 13.5562238656828,4.18817688702288 13.7312369328414,4.64096344351144 L 13.90625,5.09375 L 13.953125,5.171875 L 14,5.25 L 13.9023206335241,5.17173803147301 Q 13.8046412670483,5.09347606294601 13.6210706335241,4.95298803147301 L 13.4375,4.8125 L 13.71875,4.90625 L 14,5 L 13.7106220910608,4.69802305443353 Q 13.4212441821216,4.39604610886706 13.2106220910608,4.19802305443353 L 13,4 L 13.09375,4.28125 L 13.1875,4.5625 L 13.1048619074188,4.41272229202451 Q 13.0222238148375,4.26294458404903 12.9173619074188,4.10022229202451 L 12.8125,3.9375 L 12.875,4 L 12.9375,4.0625 L 12.96875,3.53125" fill="#006000" fill-opacity="1" />
	<path d="M 8.30455565070945,4.5505843397349 Q 8.31224139130779,4.24275389848871 8.4710626213793,4.41876557774086 Q 8.62988385145082,4.59477725699301 8.63950333282212,4.92448130138776 Q 8.64912281419343,5.25418534578252 8.63530052121976,5.28985918053186 Q 8.62147822824608,5.32553301528121 8.46386821534315,5.2907258609092 Q 8.30625820244023,5.25591870653719 8.30156405627567,5.05716674375914 Q 8.29686991011112,4.8584147809811 8.30455565070945,4.5505843397349" fill="#000000" fill-opacity="1" />
	<path d="M 10.3125055430573,4.74284034306432 Q 10.3105311827085,4.60429074538606 10.5113343611645,4.5410917636082 Q 10.7121375396206,4.47789278183034 10.7146878771727,4.68004856852002 Q 10.7172382147248,4.8822043552097 10.6959489210315,5.13940572270747 Q 10.6746596273382,5.39660709020524 10.6588503785764,5.32754717802864 Q 10.6430411298145,5.25848726585204 10.4787605166104,5.06993860329731 Q 10.3144799034062,4.88138994074258 10.3125055430573,4.74284034306432" fill="#000000" fill-opacity="1" />
	<path d="M 15.4732510457564,5.6424528010329 Q 15.548067589371,5.41737016618362 15.7552962822108,5.35984826288063 Q 15.9625249750505,5.30232635957763 16.4812624875252,5.15116317978881 L 17,5 L 16.625,5 L 16.25,5 L 16.5724815002514,5.01635205170203 Q 16.8949630005029,5.03270410340405 17.0412315002514,5.04760205170203 L 17.1875,5.0625 L 17.078125,5.046875 L 16.96875,5.03125 L 16.6871522629879,5.31317732136117 Q 16.4055545259759,5.59510464272234 16.1715272629879,5.82880232136117 L 15.9375,6.0625 L 16,6.125 L 16.0625,6.1875 L 15.8445001861113,6.05771811480877 Q 15.6265003722226,5.92793622961754 15.5320001861113,5.87021811480877 L 15.4375,5.8125 L 15.71875,5.90625 L 16,6 L 15.6992172510709,5.93376771794109 Q 15.3984345021418,5.86753543588218 15.4732510457564,5.6424528010329" fill="#f89000" fill-opacity="1" />
	<path d="M 16.7455747138645,5.27117135300326 L 16.96875,5.03125 L 16.859375,5.015625 L 16.75,5 L 16.9337615093519,5.04402104666818 Q 17.1175230187038,5.08804209333637 17.3400115093519,5.13777104666818 L 17.5625,5.1875 L 17.28125,5.09375 L 17,5 L 17.3264265889658,5.23899764613667 Q 17.6528531779316,5.47799529227335 17.8264265889658,5.73899764613667 L 18,6 L 17.90625,5.71875 L 17.8125,5.4375 L 17.8510998202435,5.63447804484608 Q 17.8896996404869,5.83145608969217 17.9135998202435,6.00947804484608 L 17.9375,6.1875 L 17.9375,6.09375 L 17.9375,6 L 17.6814359638783,6.23939627891611 Q 17.4253719277565,6.47879255783222 17.2126859638783,6.70814627891611 L 17,6.9375 L 17.09375,6.9375 L 17.1875,6.9375 L 16.9375254225452,6.89566683601386 Q 16.6875508450903,6.85383367202772 16.5625254225452,6.83316683601386 L 16.4375,6.8125 L 16.71875,6.90625 L 17,7 L 16.7066830974162,6.70343537117165 Q 16.4133661948323,6.40687074234331 16.2066830974162,6.20343537117165 L 16,6 L 16.09375,6.28125 L 16.1875,6.5625 L 16.0954005543761,6.41218811295679 Q 16.0033011087523,6.26187622591358 15.9079005543761,6.09968811295679 L 15.8125,5.9375 L 15.875,6 L 15.9375,6.0625 L 16.2299497138645,5.78679635300326 Q 16.5223994277289,5.51109270600653 16.7455747138645,5.27117135300326" fill="#f84020" fill-opacity="1" />
	<path d="M 17.2091864476198,6.74656598186834 Q 17.4183728952396,6.55563196373667 17.6779364476198,6.27781598186834 L 17.9375,6 L 17.9375,5.90625 L 17.9375,5.8125 L 17.9042782570605,6.04578284825351 Q 17.8710565141209,6.27906569650702 17.8417782570605,6.42078284825351 L 17.8125,6.5625 L 17.90625,6.28125 L 18,6 L 17.7652723493591,6.23107194177856 Q 17.5305446987183,6.46214388355713 17.2652723493591,6.73107194177856 L 17,7 L 17.28125,6.90625 L 17.5625,6.8125 L 17.4417972363028,6.84268990000369 Q 17.3210944726055,6.87287980000739 17.0667972363028,6.90518990000369 L 16.8125,6.9375 L 16.90625,6.9375 L 17,6.9375 L 17.2091864476198,6.74656598186834" fill="#903020" fill-opacity="1" />
	<path d="M 4.22254883205637,7.58089517957107 Q 4.32611769383127,7.4508809486641 4.6393762929723,7.36253606734101 Q 4.95263489211334,7.27419118601791 5.57700935402629,7.30012188170227 Q 6.20138381593925,7.32605257738664 6.42072069772203,7.3941047861388 Q 6.64005757950482,7.46215699489096 6.97175179612672,7.60440949890968 Q 7.30344601274861,7.7466620029284 7.65172300637431,7.8733310014642 L 8,8 L 8.15822627036051,8.17794746500577 Q 8.31645254072102,8.35589493001154 8.64373740903974,8.4320724631809 Q 8.97102227735846,8.50824999635026 9.16794094046598,8.51298610264225 Q 9.3648596035735,8.51772220893424 9.63313820556884,8.56630921023493 Q 9.90141680756417,8.61489621153562 10.0875939101796,8.6941159305892 Q 10.2737710127951,8.77333564964278 10.6993855063975,8.94916782482139 L 11.125,9.125 L 11.1875,9.0625 L 11.25,9 L 11.2056477503295,9.12057447369237 Q 11.1612955006591,9.24114894738475 11.0806477503295,9.49557447369237 L 11,9.75 L 11,9.375 L 11,9 L 11,9.5 L 11,10 L 10.6029152985618,9.83201553690923 Q 10.2058305971235,9.66403107381846 9.88405486668183,9.63736730552622 Q 9.56227913624014,9.61070353723397 9.36391774695432,9.68660982960095 Q 9.16555635766851,9.76251612196794 9.07760500294511,9.86359582532365 Q 8.9896536482217,9.96467552867936 8.80269689313262,10.2150689593237 Q 8.61574013804353,10.4654623899681 8.3285200388711,10.7678402882676 Q 8.04129993969868,11.0702181865672 7.83180819577855,11.280561123756 Q 7.62231645185841,11.4909040609449 7.26728026464921,11.7146470828865 Q 6.91224407744,11.9383901048281 6.66098020809515,12.0869557519732 Q 6.40971633875031,12.2355213991182 6.12696419470104,12.3974105917255 Q 5.84421205065176,12.5592997843327 5.44325986760937,12.6201298188221 Q 5.04230768456697,12.6809598533115 4.59187661493983,12.6753813536723 Q 4.14144554531269,12.6698028540331 3.80946246013486,12.5783661442475 Q 3.47747937495703,12.486929434462 3.12138170093944,12.3821989689929 Q 2.76528402692186,12.2774685035238 2.38264201346093,12.1387342517619 L 2,12 L 2.12878989649647,11.6597814413997 Q 2.25757979299295,11.3195628827995 2.4670608109874,11.0124276843329 Q 2.67654182898185,10.7052924858664 2.85693577999223,10.4406237158706 Q 3.0373297310026,10.1759549458748 3.51772158323099,10.1152683299979 Q 3.99811343545938,10.054581714121 4.43207402663868,9.93007381943989 Q 4.86603461781798,9.80556592475882 5.16826968904038,9.56826906526381 Q 5.47050476026279,9.33097220576879 5.56299478912865,9.09893978554706 Q 5.65548481799452,8.86690736532533 5.57667564828376,8.55892597953623 Q 5.497866478573,8.25094459374712 5.20286874252622,8.33645350533722 Q 4.90787100647943,8.42196241692731 4.61931528587328,8.5843263508679 Q 4.33075956526713,8.74669028480849 4.16537978263357,8.87334514240425 L 4,9 L 4.09375,8.71875 L 4.1875,8.4375 L 4.14970963670626,8.62082810117669 Q 4.11191927341252,8.80415620235338 4.05595963670626,9.02707810117669 L 4,9.25 L 4.015625,9.140625 L 4.03125,9.03125 L 3.89018435691812,8.72322215629746 Q 3.74911871383624,8.41519431259492 3.81103195014225,8.30404685917499 Q 3.87294518644826,8.19289940575506 3.99596257836486,7.95190440811655 Q 4.11897997028147,7.71090941047804 4.22254883205637,7.58089517957107 M 2,11.625 L 2,12 L 2,12.125 L 2,12.25 L 2,12 Q 2,11.75 2,11.5 L 2,11.25 L 2,11.625 M 11,10.125 L 11,10 L 11,9.625 L 11,9.25 L 11,9.5 Q 11,9.75 11,10 L 11,10.25 L 11,10.125" fill="#00f800" fill-opacity="1" />
	<path d="M 9.02394102919448,7.7736692587315 Q 9.49632072815267,7.65836172307998 9.56007025038594,7.66363054876618 Q 9.62381977261921,7.66889937445237 9.88414111346781,7.70937265235552 Q 10.1444624543164,7.74984593025867 10.5335796697047,7.76752853286687 Q 10.922696885093,7.78521113547506 11.4013438472589,7.77370715925293 Q 11.8799908094248,7.7622031830308 12.258620548066,7.63997725444612 Q 12.6372502867073,7.51775132586144 13.0086549102893,7.37607456170422 Q 13.3800595338713,7.234397797547 13.6900297669356,7.1171988987735 L 14,7 L 13.8266805775413,7.32610634796489 Q 13.6533611550826,7.65221269592979 13.5549112120608,7.85266497011304 Q 13.4564612690389,8.0531172442963 13.2126056345195,8.54218362214815 L 12.96875,9.03125 L 13.078125,9.046875 L 13.1875,9.0625 L 12.9287487255747,9.05926885349467 Q 12.6699974511494,9.05603770698935 12.4599987255747,9.02801885349467 L 12.25,9 L 12.625,9 L 13,9 L 12.5,9 Q 12,9 11.5,9 L 11,9 L 11.375,9 L 11.75,9 L 11.4711642067571,9.08810089168865 Q 11.1923284135141,9.17620178337731 11.0961642067571,9.21310089168865 L 11,9.25 L 11.0625,9.1875 L 11.125,9.125 L 10.6112181800353,8.84986150834004 Q 10.0974363600707,8.57472301668009 9.98131913752007,8.52290582893668 Q 9.86520191496946,8.47108864119327 9.60349667135323,8.50729744392787 Q 9.341791427737,8.54350624666247 8.97301712048846,8.55823808218503 Q 8.60424281323992,8.5729699177076 8.4805656819572,8.45612225717335 Q 8.35688855067449,8.33927459663911 8.17844427533725,8.16963729831955 L 8,8 L 8.27578066511814,7.94448839719151 Q 8.55156133023629,7.88897679438301 9.02394102919448,7.7736692587315" fill="#006000" fill-opacity="1" />
	<path d="M 13.8706124788421,7.23949440023955 L 14,7 L 14.4108961589394,7.10237954681035 Q 14.8217923178788,7.2047590936207 15.121841562532,7.34228214145628 Q 15.4218908071853,7.47980518929185 15.524345679511,7.80570121833854 Q 15.6268005518368,8.13159724738523 15.6205438437152,8.53927068862331 Q 15.6142871355937,8.9469441298614 15.5163394811756,9.19678506631022 Q 15.4183918267574,9.44662600275903 15.1623209133787,9.77018800137952 L 14.90625,10.09375 L 14.953125,10.171875 L 15,10.25 L 14.9528066090641,10.2143021146164 Q 14.9056132181283,10.1786042292328 14.6715566090641,9.99555211461641 L 14.4375,9.8125 L 14.71875,9.90625 L 15,10 L 14.6259785918814,9.84971121118274 Q 14.2519571837629,9.69942242236548 13.889318879031,9.48788949133614 Q 13.5266805742992,9.27635656030679 13.2633402871496,9.13817828015339 L 13,9 L 13.28125,9.09375 L 13.5625,9.1875 L 13.3817988854748,9.14643528540453 Q 13.2010977709496,9.10537057080906 12.9755488854748,9.05268528540453 L 12.75,9 L 12.859375,9.015625 L 12.96875,9.03125 L 13.1480101998493,8.64625626412715 Q 13.3272703996986,8.26126252825431 13.5342476786914,7.8701256643667 Q 13.7412249576842,7.47898880047909 13.8706124788421,7.23949440023955 M 14.25,8.5 Q 14.25,8.75 14.5,8.75 Q 14.75,8.75 14.75,8.5 Q 14.75,8.25 14.5,8.25 Q 14.25,8.25 14.25,8.5" fill="#00f800" fill-opacity="1" />
	<path d="M 4.33446521327573,9.07206425347694 Q 4.43854713710656,8.84325403974776 4.68502485379461,8.59114180308703 Q 4.93150257048267,8.33902956642631 5.15903632600514,8.3886012611974 Q 5.38657008152761,8.4381729559685 5.69328504076381,8.71908647798425 L 6,9 L 5.90625,8.71875 L 5.8125,8.4375 L 5.85194002975567,8.64414440236014 Q 5.89138005951135,8.85078880472029 5.91444002975567,9.01914440236014 L 5.9375,9.1875 L 5.9375,9.09375 L 5.9375,9 L 5.71552338448086,9.21908726364215 Q 5.49354676896173,9.43817452728431 5.23114838448086,9.70346226364215 L 4.96875,9.96875 L 5.078125,9.953125 L 5.1875,9.9375 L 4.9280365822589,9.94932290448019 Q 4.66857316451779,9.96114580896038 4.4592865822589,9.98057290448019 L 4.25,10 L 4.625,10 L 5,10 L 4.5,10 L 4,10 L 4.11519164472245,9.65043723360306 Q 4.23038328944491,9.30087446720613 4.33446521327573,9.07206425347694 M 3.875,10 L 4,10 L 4.375,10 L 4.75,10 L 4.5,10 Q 4.25,10 4,10 L 3.75,10 L 3.875,10" fill="#f8f8f8" fill-opacity="1" />
	<path d="M 14.25,8.5 Q 14.25,8.25 14.5,8.25 Q 14.75,8.25 14.75,8.5 Q 14.75,8.75 14.5,8.75 Q 14.25,8.75 14.25,8.5" fill="#f8f8f8" fill-opacity="1" />
	<path d="M 15.8568376405953,8.3581020549967 L 16,8 L 16,8.375 L 16,8.75 L 15.9808801845849,8.44720727060209 Q 15.9617603691699,8.14441454120419 15.9496301845849,7.97845727060209 L 15.9375,7.8125 L 15.953125,7.921875 L 15.96875,8.03125 L 16.0966470460348,8.26448815118003 Q 16.2245440920696,8.49772630236006 16.4012447836698,8.87636256363539 Q 16.57794547527,9.25499882491073 16.788972737635,9.62749941245536 L 17,10 L 16.7902064148698,10.2492906863623 Q 16.5804128297397,10.4985813727247 16.3496828043599,10.7242073661062 Q 16.1189527789801,10.9498333594877 15.7651698274783,11.2573706212313 Q 15.4113868759765,11.5649078829749 15.2056934379883,11.7824539414875 L 15,12 L 15,11.5 Q 15,11 15,10.5 L 15,10 L 15,10.375 L 15,10.75 L 14.9467889511186,10.520794876075 Q 14.8935779022372,10.29158975215 14.8530389511186,10.114544876075 L 14.8125,9.9375 L 14.859375,10.015625 L 14.90625,10.09375 L 15.0883933179769,9.84463643002569 Q 15.2705366359537,9.59552286005138 15.4921059585722,9.15586348502238 Q 15.7136752811906,8.71620410999339 15.8568376405953,8.3581020549967 M 17,10.125 L 17,10 L 17,9.625 L 17,9.25 L 17,9.5 Q 17,9.75 17,10 L 17,10.25 L 17,10.125" fill="#00a800" fill-opacity="1" />
	<path d="M 18.1229095412409,8.91636953184678 Q 18.2458190824817,8.83273906369356 18.3870230038357,8.79194798875458 Q 18.5282269251897,8.75115691381561 18.7641134625949,8.8755784569078 L 19,9 L 18.515625,9.015625 L 18.03125,9.03125 L 18.015625,9.140625 L 18,9.25 L 18.0588686703833,8.99199195565225 Q 18.1177373407666,8.73398391130449 18.1526186703833,8.58574195565225 L 18.1875,8.4375 L 18.09375,8.71875 L 18,9 L 18.1229095412409,8.91636953184678" fill="#f89000" fill-opacity="1" />
	<path d="M 5.20775659573189,9.7333217537957 Q 5.44676319146378,9.4978935075914 5.69213159573189,9.2489467537957 L 5.9375,9 L 5.9375,8.90625 L 5.9375,8.8125 L 5.9041785042927,9.06662405099097 Q 5.87085700858541,9.32074810198194 5.8416785042927,9.44162405099097 L 5.8125,9.5625 L 5.90625,9.28125 L 6,9 L 5.69034206532656,9.33596938718621 Q 5.38068413065313,9.67193877437242 5.19034206532656,9.83596938718621 L 5,10 L 5.28125,9.90625 L 5.5625,9.8125 L 5.34991373618246,9.86068203226811 Q 5.13732747236492,9.90886406453623 4.94366373618246,9.95443203226811 L 4.75,10 L 4.859375,9.984375 L 4.96875,9.96875 L 5.20775659573189,9.7333217537957" fill="#000000" fill-opacity="1" />
	<path d="M 9.01697390230465,9.78709294468262 Q 9.12942290265552,9.56541723481632 9.41949180736881,9.52861522995104 Q 9.70956071208211,9.49181322508576 10.0189826653311,9.6144956474842 Q 10.3284046185801,9.73717806988264 10.66420230929,9.86858903494132 L 11,10 L 11,10.5 L 11,11 L 10.6418434743324,11.0594544839682 Q 10.2836869486648,11.1189089679364 9.94635611458628,11.4650049901812 Q 9.60902528050776,11.811101012426 9.39041072256067,12.0375048525631 Q 9.17179616461359,12.2639086927003 8.89292150530052,12.5455957251755 Q 8.61404684598746,12.8272827576507 8.38517473734574,12.9817504565787 Q 8.15630262870402,13.1362181555066 7.83002526805737,13.3922483426366 Q 7.50374790741072,13.6482785297666 7.17409366164896,13.8163914392953 Q 6.8444394158872,13.984504348824 6.49386706060328,14.2038842540427 Q 6.14329470531935,14.4232641592614 5.87095125400622,14.4786491908208 Q 5.59860780269308,14.5340342223803 5.44486928178573,14.5736467673612 Q 5.29113076087839,14.613259312342 4.68881774105891,14.5883644747203 Q 4.08650472123944,14.5634696370985 3.63635181345109,14.4109848289103 Q 3.18619890566273,14.2585000207222 3.12508356707989,14.2005380587131 Q 3.06396822849706,14.142576096704 2.77515225975083,13.8226863536158 Q 2.48633629100459,13.5027966105276 2.391438176834,13.2013904380211 Q 2.2965400626634,12.8999842655146 2.1482700313317,12.4499921327573 L 2,12 L 2.36963338640385,12.1782494479514 Q 2.7392667728077,12.3564988959029 3.02554953568059,12.4420273766175 Q 3.31183229855347,12.5275558573322 3.64089483890724,12.5851201647707 Q 3.96995737926101,12.6426844722092 4.33679524760777,12.6590952173151 Q 4.70363311595453,12.675505962421 5.15772191765496,12.5349996350578 Q 5.61181071935539,12.3944933076946 5.97458394441036,12.2674406432861 Q 6.33735716946533,12.1403879788776 6.64456321733634,12.0630629595837 Q 6.95176926520735,11.9857379402899 7.15985592016827,11.833904418755 Q 7.36794257512919,11.6820708972202 7.74641799166981,11.3919146881459 Q 8.12489340821043,11.1017584790717 8.34250723115052,10.9395785434472 Q 8.56012105409062,10.7773986078228 8.73232297802219,10.3930836311859 Q 8.90452490195377,10.0087686545489 9.01697390230465,9.78709294468262 M 2,11.875 L 2,12 L 2,12.375 L 2,12.75 L 2,12.5 Q 2,12.25 2,12 L 2,11.75 L 2,11.875 M 11,11.125 L 11,11 L 11,10.625 L 11,10.25 L 11,10.5 Q 11,10.75 11,11 L 11,11.25 L 11,11.125 M 11,10.375 L 11,10 L 11,9.875 L 11,9.75 L 11,10 Q 11,10.25 11,10.5 L 11,10.75 L 11,10.375" fill="#00a800" fill-opacity="1" />
	<path d="M 11.2085670654003,9.85928222198704 Q 11.2549402979808,9.64625848819095 11.5804215892069,9.48251542026178 Q 11.905902880433,9.31877235233261 12.4658221302802,9.38541425255729 Q 13.0257413801275,9.45205615278197 13.284892040583,9.49069054182768 Q 13.5440427010386,9.52932493087338 13.7184597994636,9.62431009567776 Q 13.8928768978887,9.71929526048214 14.2974245360458,9.99011229362344 Q 14.701972174203,10.2609293267647 14.7761924425262,10.6666702573615 Q 14.8504127108494,11.0724111879582 14.9252063554247,11.5362055939791 L 15,12 L 14.6323173477174,12.1886873248155 Q 14.2646346954348,12.377374649631 13.8837448926101,12.5377321883746 Q 13.5028550897855,12.6980897271182 13.2823766062362,12.7558697400118 Q 13.0618981226868,12.8136497529054 12.6537510496698,12.662764665048 Q 12.2456039766528,12.5118795771906 11.9830327579323,12.4021374758576 Q 11.7204615392119,12.2923953745246 11.3602307696059,12.1461976872623 L 11,12 L 11,11.5 Q 11,11 11.08109691641,10.5361529778916 Q 11.1621938328199,10.0723059557831 11.2085670654003,9.85928222198704" fill="#f8f8f8" fill-opacity="1" />
	<path d="M 18,9.5 L 18,9 L 18,9.375 L 18,9.75 L 18.0164318333631,9.50122746374166 Q 18.0328636667262,9.25245492748332 18.0476818333631,9.03247746374166 L 18.0625,8.8125 L 18.046875,8.921875 L 18.03125,9.03125 L 18.515625,9.015625 L 19,9 L 18.7514221989847,9.32586817147134 Q 18.5028443979695,9.65173634294269 18.2670471989847,9.81024317147134 L 18.03125,9.96875 L 18.046875,10.078125 L 18.0625,10.1875 L 18.0332708037759,9.85047767768578 Q 18.0040416075518,9.51345535537156 18.0020208037759,9.38172767768578 L 18,9.25 L 18,9.625 L 18,10 L 18,9.5" fill="#f84020" fill-opacity="1" />
	<path d="M 18.8426073672739,9.25431410604707 L 19,9 L 19.1658844106323,9.29834389502571 Q 19.3317688212645,9.59668779005142 19.3899969865812,9.87431506803809 Q 19.448225151898,10.1519423460248 19.4449841980566,10.3356284940781 Q 19.4417432442153,10.5193146421315 19.3035213750803,10.5665588510766 Q 19.1652995059454,10.6138030600216 18.8592117981388,10.5332329630483 Q 18.5531240903321,10.4526628660749 18.2765620451661,10.2263314330375 L 18,10 L 18.09375,10.28125 L 18.1875,10.5625 L 18.1618681726276,10.4281874708206 Q 18.1362363452552,10.2938749416412 18.0681181726276,10.0219374708206 L 18,9.75 L 18.015625,9.859375 L 18.03125,9.96875 L 18.3582323672739,9.73868910604707 Q 18.6852147345479,9.50862821209413 18.8426073672739,9.25431410604707" fill="#903020" fill-opacity="1" />
	<path d="M 16.1160960126976,10.6924784989993 Q 16.34672134118,10.4270942270183 16.67336067059,10.2135471135092 L 17,10 L 16.9197668291371,10.5604538687321 Q 16.8395336582742,11.1209077374641 16.7835463729727,11.5010156179783 Q 16.7275590876711,11.8811234984925 16.6556328754957,12.2965114939069 Q 16.5837066633202,12.7118994893212 16.4786685829359,12.8349863208819 Q 16.3736305025516,12.9580731524425 16.0143354808455,13.4407771095882 Q 15.6550404591393,13.9234810667338 15.6309854580641,14.0580368973876 Q 15.6069304569889,14.1925927280414 15.5527000004031,14.5302390425781 Q 15.4984695438172,14.8678853571149 15.5408021517404,15.2513158370863 Q 15.5831347596637,15.6347463170578 15.6582535315693,16.0456412256093 Q 15.7333723034749,16.4565361341608 15.8041861517374,16.7907680670804 L 15.875,17.125 L 15.9375,17.1875 L 16,17.25 L 15.8185393730265,17.1882102734238 Q 15.637078746053,17.1264205468476 15.4435393730265,17.0632102734238 L 15.25,17 L 15.625,17 L 16,17 L 15.5,17 L 15,17 L 14.739583551093,16.7050275087322 Q 14.4791671021861,16.4100550174644 14.2501556376229,16.1868885933943 Q 14.0211441730597,15.9637221693242 13.6792670054963,15.6194208156059 Q 13.337389837933,15.2751194618876 13.1686949189665,15.1375597309438 L 13,15 L 13.2366478906708,14.6619230718815 Q 13.4732957813415,14.323846143763 13.6324330869282,14.0926282935974 Q 13.7915703925148,13.8614104434319 13.9836715372145,13.6122767567517 Q 14.1757726819142,13.3631430700715 14.392432452857,12.9952957451729 Q 14.6090922237998,12.6274484202743 14.8045461118999,12.3137242101371 L 15,12 L 15.2212468649534,11.7513587209693 Q 15.4424937299069,11.5027174419387 15.663982207061,11.2302901064594 Q 15.8854706842152,10.9578627709802 16.1160960126976,10.6924784989993 M 14.875,17 L 15,17 L 15.375,17 L 15.75,17 L 15.5,17 Q 15.25,17 15,17 L 14.75,17 L 14.875,17 M 17,10.375 L 17,10 L 17,9.875 L 17,9.75 L 17,10 Q 17,10.25 17,10.5 L 17,10.75 L 17,10.375" fill="#006000" fill-opacity="1" />
	<path d="M 10.0631047273931,11.6193841072355 Q 10.33745798624,11.4597824107435 10.66872899312,11.2298912053718 L 11,11 L 11,11.5 L 11,12 L 10.6857226214771,12.1528990413774 Q 10.3714452429542,12.3057980827549 10.2725000532914,12.5776909118065 Q 10.1735548636287,12.8495837408582 9.95024533160042,13.4235907104675 Q 9.72693579957212,13.9975976800768 9.59902704930819,14.3618322154446 Q 9.47111829904426,14.7260667508124 9.37200777043333,14.8236389362771 Q 9.2728972418224,14.9212111217418 8.97686428887042,15.1602137891332 Q 8.68083133591844,15.3992164565247 8.3622616381558,15.5885544195019 Q 8.04369194039316,15.7778923824792 7.50517953359181,15.7293998694126 Q 6.96666712679047,15.680907356346 6.56316357798672,15.6324488196731 Q 6.15966002918298,15.5839902830003 5.81989686805517,15.3955529605251 Q 5.48013370692736,15.2071156380498 5.22444185346368,15.0879328190249 L 4.96875,14.96875 L 4.859375,14.984375 L 4.75,15 L 5.0167015817065,14.9485901546629 Q 5.28340316341301,14.8971803093258 5.4229515817065,14.8548401546629 L 5.5625,14.8125 L 5.28125,14.90625 L 5,15 L 5.22063527962106,14.8943524510632 Q 5.44127055924212,14.7887049021263 5.84798268591309,14.5570007328617 Q 6.25469481258406,14.3252965635971 6.65437326767918,14.1083680559454 Q 7.05405172277431,13.8914395482938 7.43984662226394,13.6772153846348 Q 7.82564152175358,13.4629912209758 8.03703589654739,13.3464635629365 Q 8.2484302713412,13.2299359048973 8.4992151356706,12.9899679524486 Q 8.75,12.75 9.03579363266392,12.4758522123626 Q 9.32158726532785,12.2017044247252 9.55516936693698,11.9903451142264 Q 9.78875146854611,11.7789858037275 10.0631047273931,11.6193841072355 M 11,11.375 L 11,11 L 11,10.875 L 11,10.75 L 11,11 Q 11,11.25 11,11.5 L 11,11.75 L 11,11.375" fill="#006000" fill-opacity="1" />
	<path d="M 11.2117232011628,12.4382789040686 L 11,12 L 11.4207184084729,12.2114980741865 Q 11.8414368169459,12.422996148373 12.1354526509288,12.5637172856956 Q 12.4294684849118,12.7044384230182 12.5441636993988,12.7264882147319 Q 12.6588589138858,12.7485380064456 13.0487865836703,12.6757496336013 Q 13.4387142534548,12.6029612607569 13.8001398295689,12.4673275871458 Q 14.1615654056829,12.3316939135346 14.5807827028415,12.1658469567673 L 15,12 L 14.8165885232466,12.2606801674169 Q 14.6331770464932,12.5213603348338 14.4087707187148,12.8265776013788 Q 14.1843643909364,13.1317948679239 13.9671821954682,13.4408974339619 Q 13.75,13.75 13.5638156970096,14.0662786142511 Q 13.3776313940192,14.3825572285021 13.1888156970096,14.6912786142511 L 13,15 L 12.5613047307992,15.2303337179964 Q 12.1226094615984,15.4606674359928 11.8912306597124,15.5766917924114 Q 11.6598518578265,15.6927161488299 11.3299259289133,15.8463580744149 L 11,16 L 11.148117796616,15.7242097527658 Q 11.296235593232,15.4484195055316 11.4499903820746,15.0643232471784 Q 11.6037451709172,14.6802269888251 11.7549975854586,14.2932384944126 L 11.90625,13.90625 L 11.859375,13.984375 L 11.8125,14.0625 L 11.8439094084607,13.888292009701 Q 11.8753188169214,13.7140840194021 11.9376594084607,13.482042009701 L 12,13.25 L 12,13.625 L 12,14 L 11.7866753651931,13.5843346047724 Q 11.5733507303863,13.1686692095449 11.4983985663559,13.0226135088411 Q 11.4234464023255,12.8765578081373 11.2117232011628,12.4382789040686" fill="#f8c0a8" fill-opacity="1" />
	<path d="M 17.25,13.5 Q 17.25,13.25 17.5,13.25 Q 17.75,13.25 17.75,13.5 Q 17.75,13.75 17.5,13.75 Q 17.25,13.75 17.25,13.5" fill="#f84020" fill-opacity="1" />
	<path d="M 11.1880205417113,14.6526665530529 Q 11.4346260094012,14.4246029505388 11.7173130047006,14.2123014752694 L 12,14 L 11.71875,14.09375 L 11.4375,14.1875 L 11.660257399215,14.0183223576254 Q 11.88301479843,13.8491447152508 11.941507399215,13.7995723576254 L 12,13.75 L 11.953125,13.828125 L 11.90625,13.90625 L 11.7161269408886,14.3878719537157 Q 11.5260038817772,14.8694939074314 11.4310074496286,15.0912565700262 Q 11.3360110174799,15.313019232621 11.16800550874,15.6565096163105 L 11,16 L 10.8023980170208,15.8626683321433 Q 10.6047960340417,15.7253366642866 10.5257820610252,15.536437464342 Q 10.4467680880086,15.3475382643973 10.694091581015,15.1141342099822 Q 10.9414150740213,14.880730155567 11.1880205417113,14.6526665530529" fill="#f8f8f8" fill-opacity="1" />
	<path d="M 11.8753168278201,15.590220917262 Q 12.097277657116,15.4843021686465 12.548638828558,15.2421510843233 L 13,15 L 12.9235297013009,15.5469378414491 Q 12.8470594026018,16.0938756828983 12.7184989538945,16.3358243848597 Q 12.5899385051871,16.5777730868211 12.3370441325647,16.6580838050731 Q 12.0841497599423,16.7383945233251 11.5420748799711,16.8691972616625 L 11,17 L 11.375,17 L 11.75,17 L 11.5003565195367,17.014803436126 Q 11.2507130390735,17.029606872252 11.0316065195367,17.046053436126 L 10.8125,17.0625 L 10.921875,17.046875 L 11.03125,17.03125 L 11.015625,16.515625 L 11,16 L 11.3266779992621,15.8480698329388 Q 11.6533559985242,15.6961396658775 11.8753168278201,15.590220917262" fill="#f89888" fill-opacity="1" />
	<path d="M 12.7613070820278,15.6024904171249 L 13,15 L 13.3123002766223,15.2195640001886 Q 13.6246005532446,15.4391280003773 13.8968852809441,15.6877771167784 Q 14.1691700086436,15.9364262331796 14.3591466477009,16.1618131582389 Q 14.5491232867581,16.3872000832982 14.7745616433791,16.6936000416491 L 15,17 L 14.5594330847948,17.1340681694898 Q 14.1188661695895,17.2681363389795 13.733620948558,17.3485156274859 Q 13.3483757275266,17.4288949159923 13.1741878637633,17.7144474579962 L 13,18 L 13.09375,17.71875 L 13.1875,17.4375 L 13.1657942366045,17.6135372871596 Q 13.144088473209,17.7895745743192 13.1032942366045,17.9885372871596 L 13.0625,18.1875 L 13.0625,18.09375 L 13.0625,18 L 12.53125,18 L 12,18 L 11.984375,17.484375 L 11.96875,16.96875 L 11.859375,16.984375 L 11.75,17 L 11.9772283835667,16.9508153159612 Q 12.2044567671334,16.9016306319223 12.3834783835667,16.8570653159612 L 12.5625,16.8125 L 12.28125,16.90625 L 12,17 L 12.1561491280881,16.7935965218842 Q 12.3122982561762,16.5871930437685 12.4174562101159,16.3960869390092 Q 12.5226141640556,16.2049808342499 12.7613070820278,15.6024904171249 M 12,17.625 L 12,18 L 12,18.125 L 12,18.25 L 12,18 Q 12,17.75 12,17.5 L 12,17.25 L 12,17.625 M 14.625,17 L 15,17 L 15.125,17 L 15.25,17 L 15,17 Q 14.75,17 14.5,17 L 14.25,17 L 14.625,17" fill="#00a800" fill-opacity="1" />
	<path d="M 16.25,15.5 Q 16.25,15.25 16.5,15.25 Q 16.75,15.25 16.75,15.5 Q 16.75,15.75 16.5,15.75 Q 16.25,15.75 16.25,15.5" fill="#f84020" fill-opacity="1" />
	<path d="M 6.24920398855428,17.5883928147498 Q 6.4664071379073,17.3377239030496 6.73320356895365,17.1688619515248 L 7,17 L 6.71875,17.09375 L 6.4375,17.1875 L 6.63031252729954,17.1468010936616 Q 6.82312505459908,17.1061021873232 7.03656252729954,17.0530510936616 L 7.25,17 L 7.140625,17.015625 L 7.03125,17.03125 L 7.24823831873718,17.1987425499226 Q 7.46522663747437,17.3662350998452 7.67414162441233,17.4446304775808 Q 7.8830566113503,17.5230258553163 7.92590330567515,17.2771379276582 L 7.96875,17.03125 L 7.859375,17.015625 L 7.75,17 L 7.98402875228914,17.0528948977399 Q 8.21805750457829,17.1057897954799 8.39027875228914,17.1466448977399 L 8.5625,17.1875 L 8.28125,17.09375 L 8,17 L 8.11007545244534,17.1531804738174 Q 8.22015090489068,17.3063609476347 8.18211679122509,17.4297565064881 Q 8.1440826775595,17.5531520653414 8.08150751252263,17.7846840095751 Q 8.01893234748576,18.0162159538088 7.75943255902241,18.1898395316395 Q 7.49993277055907,18.3634631094702 7.11360187484585,18.4780533819474 Q 6.72727097913263,18.5926436544245 6.44393453962702,18.5868172100858 Q 6.16059810012141,18.5809907657471 5.91821415276183,18.5566480899261 Q 5.67583020540226,18.532305414105 5.826423074329,18.2441625007168 Q 5.97701594325575,17.9560195873287 6.00450839122851,17.8975406568893 Q 6.03200083920127,17.83906172645 6.24920398855428,17.5883928147498" fill="#f84020" fill-opacity="1" />
	<path d="M 7.09655250720374,17.2157359884063 L 7.03125,17.03125 L 6.921875,17.046875 L 6.8125,17.0625 L 6.97932199601693,17.0503695226014 Q 7.14614399203385,17.0382390452028 7.44807199601693,17.0191195226014 L 7.75,17 L 7.375,17 L 7,17 L 7.5,17 L 8,17 L 7.625,17 L 7.25,17 L 7.4791637781503,17.0099034579226 Q 7.70832755630059,17.0198069158452 7.9479137781503,17.0411534579226 L 8.1875,17.0625 L 8.078125,17.046875 L 7.96875,17.03125 L 7.76856229359828,17.2429002162138 Q 7.56837458719656,17.4545504324276 7.36511480080202,17.4273862046201 Q 7.16185501440747,17.4002219768126 7.09655250720374,17.2157359884063" fill="#f8f8f8" fill-opacity="1" />
	<path d="M 10.4323239507188,17.9536488226515 Q 10.4669401317215,17.7444256303107 10.7716258908432,17.6145163082061 Q 11.0763116499648,17.4846069861015 11.5381558249824,17.2423034930508 L 12,17 L 11.625,17 L 11.25,17 L 11.5112683352543,16.9832180148436 Q 11.7725366705086,16.9664360296873 11.9800183352543,16.9519680148436 L 12.1875,16.9375 L 12.078125,16.953125 L 11.96875,16.96875 L 12.0343777950562,17.597565565049 Q 12.1000055901124,18.2263811300981 12.1952787237569,18.6799102478218 Q 12.2905518574014,19.1334393655455 12.404847290439,19.3776205555781 Q 12.5191427234766,19.6218017456107 12.6740609100899,19.8795344078702 Q 12.8289790967032,20.1372670701296 12.9999522692815,20.4397745555627 Q 13.1709254418597,20.7422820409957 13.2267067644462,20.9710176576201 Q 13.2824880870327,21.1997532742446 13.4204761483627,21.7952336211958 Q 13.5584642096928,22.3907139681469 13.6318445415268,22.686472997098 Q 13.7052248733608,22.982232026049 13.5915782363871,23.3368566850663 Q 13.4779315994135,23.6914813440835 13.3112254852889,23.8642910484 Q 13.1445193711643,24.0371007527165 12.8342635512046,24.3057409504804 Q 12.5240077312449,24.5743811482444 12.2620038656225,24.7871905741222 L 12,25 L 12.28125,24.90625 L 12.5625,24.8125 L 12.3866904423394,24.852334425192 Q 12.2108808846787,24.892168850384 11.9804404423394,24.946084425192 L 11.75,25 L 11.859375,24.984375 L 11.96875,24.96875 L 11.7567030855093,24.6640195474283 Q 11.5446561710186,24.3592890948566 11.4036760512815,24.1395520941946 Q 11.2626959315444,23.9198150935326 11.0799019593477,23.5841536933541 Q 10.8971079871511,23.2484922931755 10.695445846508,22.8724531211762 Q 10.4937837058649,22.4964139491769 10.4174080639111,22.2337056386674 Q 10.3410324219572,21.970997328158 10.2894979309533,21.6272957704215 Q 10.2379634399493,21.2835942126851 10.2188340980647,20.7836380237288 Q 10.1997047561802,20.2836818347725 10.2261738196428,19.6245736186682 Q 10.2526428831055,18.9654654025638 10.3251753264108,18.5641687087781 Q 10.397707769716,18.1628720149923 10.4323239507188,17.9536488226515 M 11.9249076953216,22.7816771002692 Q 12.0396421240478,22.7787075630174 12.3504061738962,22.7093577183361 Q 12.6611702237447,22.6400078736548 12.5627633019759,22.2306650027077 Q 12.4643563802072,21.8213221317606 12.3893371536463,21.6640722754128 Q 12.3143179270855,21.506822419065 12.1699337397795,21.5039379825485 Q 12.0255495524735,21.501053546032 12.0283997762367,21.766151773016 L 12.03125,22.03125 L 12.140625,22.015625 L 12.25,22 L 12.0459529867872,22.0474817585567 Q 11.8419059735743,22.0949635171133 11.6397029867872,22.1412317585567 L 11.4375,22.1875 L 11.71875,22.09375 L 12,22 L 11.871534550037,22.2670910122768 Q 11.743069100074,22.5341820245535 11.7766211833347,22.6594143310373 Q 11.8101732665953,22.7846466375211 11.9249076953216,22.7816771002692" fill="#00f800" fill-opacity="1" />
	<path d="M 13.55737209704,17.8026577813389 Q 13.6598340234649,17.4160523043438 14.0171985491841,17.3082975747801 Q 14.3745630749034,17.2005428452164 14.672705330297,17.1825080364919 Q 14.9708475856906,17.1644732277675 15.4161521078978,17.2500853425009 Q 15.8614566301049,17.3356974572342 15.8674231183505,17.6711532187688 Q 15.8733896065962,18.0066089803034 15.8879127553433,18.5054421632983 Q 15.9024359040905,19.0042753462932 15.8833068301358,19.469206745722 Q 15.8641777561811,19.9341381451507 15.9093032278047,20.3314029346017 Q 15.9544286994284,20.7286677240528 15.75519266297,20.6269270764032 Q 15.5559566265116,20.5251864287537 15.2494271564644,20.3151053632331 Q 14.9428976864172,20.1050242977124 14.6904207202328,19.8979315561698 Q 14.4379437540485,19.6908388146273 14.1692636587456,19.4162789719895 Q 13.9005835634426,19.1417191293518 13.7260328850423,18.9107190306407 Q 13.5514822066419,18.6797189319295 13.5031961886285,18.4344910951317 Q 13.4549101706151,18.1892632583339 13.55737209704,17.8026577813389" fill="#f8f8f8" fill-opacity="1" />
	<path d="M 4.48968132090041,19.1938568343496 Q 4.41349831778253,19.0511422932852 4.56573081412503,19.1654710617047 Q 4.71796331046753,19.2797998301242 5.02165274523858,19.4225929774042 Q 5.32534218000963,19.5653861246842 5.60294731484165,19.5765593259486 Q 5.88055244967367,19.587732527213 6.18904314670434,19.5903531999049 Q 6.49753384373501,19.5929738725969 7.1968208093356,19.5398557330958 Q 7.89610777493618,19.4867375935948 8.06742202799298,19.4744153383243 Q 8.23873628104978,19.4620930830539 8.39810354467393,19.4167393382135 Q 8.55747080829808,19.371385593373 8.44545641626253,19.5430331779262 Q 8.33344202422697,19.7146807624794 8.13825653034181,19.8911822357407 Q 7.94307103645665,20.067683709002 7.76874522999569,20.2320286907987 Q 7.59441942353473,20.3963736725954 7.15664419774857,20.4985267774602 Q 6.71886897196242,20.6006798823251 6.42040838067555,20.6082893379711 Q 6.12194778938868,20.6158987936172 5.78645114986526,20.4756751158744 Q 5.45095451034184,20.3354514381315 5.30223929666203,20.2097634727937 Q 5.15352408298222,20.084075507456 4.85969420350026,19.710323441435 Q 4.5658643240183,19.3365713754141 4.48968132090041,19.1938568343496" fill="#f8f8f8" fill-opacity="1" />
	<path d="M 2.24600857950096,20.7545640930787 Q 2.49201715900191,20.5091281861575 2.74600857950096,20.2545640930787 L 3,20 L 2.71875,20.09375 L 2.4375,20.1875 L 2.62968264962765,20.1617890763617 Q 2.82186529925529,20.1360781527234 3.00468264962765,20.0992890763617 L 3.1875,20.0625 L 3.09375,20.0625 L 3,20.0625 L 3,20.53125 L 3,21 L 2.515625,21.015625 L 2.03125,21.03125 L 2.015625,21.140625 L 2,21.25 L 2.04995791355903,21.0629117018982 Q 2.09991582711805,20.8758234037963 2.14370791355903,20.6566617018982 L 2.1875,20.4375 L 2.09375,20.71875 L 2,21 L 2.24600857950096,20.7545640930787" fill="#00f800" fill-opacity="1" />
	<path d="M 3,20.53125 L 3,20.0625 L 2.90625,20.0625 L 2.8125,20.0625 L 2.96848506106459,20.0850185207196 Q 3.12447012212918,20.1075370414392 3.34348506106459,20.1475185207196 L 3.5625,20.1875 L 3.28125,20.09375 L 3,20 L 3.24491425198848,20.1999897504633 Q 3.48982850397696,20.3999795009266 3.81573413562879,20.6296431247923 Q 4.14163976728061,20.8593067486581 4.50261639160575,21.1129587933773 Q 4.86359301593089,21.3666108380964 5.08599738448905,21.487338385015 Q 5.3084017530472,21.6080659319335 5.6542008765236,21.8040329659667 L 6,22 L 5.71875,21.90625 L 5.4375,21.8125 L 5.59251480673208,21.8469458926862 Q 5.74752961346415,21.8813917853725 5.99876480673208,21.9406958926862 L 6.25,22 L 6.140625,21.984375 L 6.03125,21.96875 L 6.16998931924084,22.1799555959625 Q 6.30872863848169,22.391161191925 6.7180159999258,22.5281678292217 Q 7.12730336136991,22.6651744665183 7.54802668068495,22.8482122332592 L 7.96875,23.03125 L 7.953125,22.921875 L 7.9375,22.8125 L 7.95150194790692,23.0030427612524 Q 7.96550389581383,23.1935855225048 7.98275194790692,23.4717927612524 L 8,23.75 L 8,23.375 L 8,23 L 8,23.5 L 8,24 L 7.57505170393272,23.8902290590993 Q 7.15010340786544,23.7804581181987 6.65732436337616,23.6417010664668 Q 6.16454531888689,23.502944014735 5.91543698394226,23.3988696462004 Q 5.66632864899762,23.2947952776657 5.33316432449881,23.1473976388329 L 5,23 L 4.78974771836179,22.7148234378092 Q 4.57949543672358,22.4296468756183 4.39639185390384,22.186155809962 Q 4.2132882710841,21.9426647443057 3.92221943273778,21.7039607733972 Q 3.63115059439146,21.4652568024887 3.31557529719573,21.2326284012444 L 3,21 L 3,20.53125 M 4.90625,22.96875 L 5,23 L 5.28125,23.09375 L 5.5625,23.1875 L 5.375,23.125 Q 5.1875,23.0625 5,23 L 4.8125,22.9375 L 4.90625,22.96875" fill="#00a800" fill-opacity="1" />
	<path d="M 2.16549665447813,21.410156739601 L 2,21 L 2,21.375 L 2,21.75 L 2.00536453080963,21.5481786260431 Q 2.01072906161925,21.3463572520862 2.03661453080963,21.0794286260431 L 2.0625,20.8125 L 2.046875,20.921875 L 2.03125,21.03125 L 2.515625,21.015625 L 3,21 L 3.2292603287109,21.2961781285045 Q 3.4585206574218,21.592356257009 3.73015273530276,21.952132182872 Q 4.00178481318372,22.3119081087349 4.21975170755514,22.4737812114641 Q 4.43771860192656,22.6356543141932 4.75328882949696,22.7985549700614 Q 5.06885905706736,22.9614556259296 5.28796227170409,23.1122204039361 Q 5.50706548634081,23.2629851819426 5.90899031444988,23.3868402971185 Q 6.31091514255894,23.5106954122943 6.80826820022579,23.6592863258134 Q 7.30562125789263,23.8078772393325 7.65281062894632,23.9039386196662 L 8,24 L 7.984375,24.515625 L 7.96875,25.03125 L 8.078125,25.046875 L 8.1875,25.0625 L 7.95825523958286,25.0498227710573 Q 7.72901047916571,25.0371455421146 7.48950523958286,25.0185727710573 L 7.25,25 L 7.625,25 L 8,25 L 7.5,25 Q 7,25 6.5,25 Q 6,25 5.5,25 L 5,25 L 4.78160727398079,24.657796860746 Q 4.56321454796158,24.315593721492 4.37192128799363,24.0984714319515 Q 4.18062802802568,23.881349142411 3.92976355796785,23.7250348833215 Q 3.67889908791003,23.5687206242321 3.29257454395501,23.331235312116 L 2.90625,23.09375 L 2.953125,23.171875 L 3,23.25 L 2.88765450697108,23.1702551001865 Q 2.77530901394217,23.0905102003729 2.60640450697108,22.9515051001865 L 2.4375,22.8125 L 2.71875,22.90625 L 3,23 L 2.75438374901045,22.6566199736992 Q 2.50876749802091,22.3132399473983 2.41988040348859,22.0667767133002 Q 2.33099330895627,21.820313479202 2.16549665447813,21.410156739601 M 4.875,25 L 5,25 L 5.375,25 L 5.75,25 L 5.5,25 Q 5.25,25 5,25 L 4.75,25 L 4.875,25" fill="#f8f8f8" fill-opacity="1" />
	<path d="M 3.2464219242958,21.3001422340691 L 3,21 L 3.35007185123981,21.2618306223067 Q 3.70014370247961,21.5236612446134 3.97167532493904,21.796263741118 Q 4.24320694739847,22.0688662376226 4.37850799696916,22.1889576597903 Q 4.51380904653986,22.3090490819579 4.75690452326993,22.654524540979 L 5,23 L 4.75323596777312,22.832153733858 Q 4.50647193554625,22.664307467716 4.2387285685056,22.3988607049507 Q 3.97098520146496,22.1334139421854 3.73191452502828,21.8668492051618 Q 3.4928438485916,21.6002844681383 3.2464219242958,21.3001422340691 M 4.71875,22.90625 L 5,23 L 5.09375,23.03125 L 5.1875,23.0625 L 5,23 Q 4.8125,22.9375 4.625,22.875 L 4.4375,22.8125 L 4.71875,22.90625" fill="#006000" fill-opacity="1" />
	<path d="M 9.42674085130647,21.7697727112483 Q 9.53487586121069,21.4997180017525 9.76743793060534,21.2498590008762 L 10,21 L 10.1687564778171,21.620820018781 Q 10.3375129556342,22.2416400375621 10.4762691396935,22.5340967896495 Q 10.6150253237528,22.8265535417369 10.7596966425235,23.0594312389425 Q 10.9043679612942,23.2923089361481 11.0209641670615,23.4680384001255 Q 11.1375603728288,23.6437678641029 11.3704678174378,24.0055492266282 Q 11.6033752620469,24.3673305891535 11.7860626310234,24.6680402945767 L 11.96875,24.96875 L 12.078125,24.953125 L 12.1875,24.9375 L 12.0737202377838,24.9471745562814 Q 11.9599404755677,24.9568491125628 11.6049702377838,24.9784245562814 L 11.25,25 L 11.625,25 L 12,25 L 11.5,25 L 11,25 L 11.375,25 L 11.75,25 L 11.4900733959175,24.9774164236919 Q 11.2301467918349,24.9548328473837 11.0213233959175,24.9461664236919 L 10.8125,24.9375 L 10.921875,24.953125 L 11.03125,24.96875 L 10.78926872565,24.6715171983813 Q 10.5472874513,24.3742843967626 10.3854007273379,24.2056314503218 Q 10.2235140033758,24.036978503881 9.86146608279621,23.7076404057246 Q 9.49941816221663,23.3783023075682 9.26533408110831,23.1735261537841 L 9.03125,22.96875 L 9.046875,23.078125 L 9.0625,23.1875 L 9.04880111709007,22.952217356265 Q 9.03510223418013,22.7169347125301 9.01755111709007,22.483467356265 L 9,22.25 L 9,22.625 L 9,23 L 9.15930292070112,22.519913710372 Q 9.31860584140225,22.039827420744 9.42674085130647,21.7697727112483 M 10,21.375 L 10,21 L 10,20.875 L 10,20.75 L 10,21 Q 10,21.25 10,21.5 L 10,21.75 L 10,21.375" fill="#00a800" fill-opacity="1" />
	<path d="M 12.1046370997042,21.8250086899774 Q 12.1780241994085,21.6187673799548 12.3125827843615,21.6926956344129 Q 12.4471413693145,21.766623888871 12.7235706846572,21.8833119444355 L 13,22 L 12.90625,21.71875 L 12.8125,21.4375 L 12.8510328273585,21.657260538414 Q 12.889565654717,21.877021076828 12.9135328273585,22.032260538414 L 12.9375,22.1875 L 12.9375,22.09375 L 12.9375,22 L 12.46875,22 L 12,22 L 12.375,22 L 12.75,22 L 12.3937783030357,22.022618331404 Q 12.0375566060713,22.045236662808 11.9250283030357,22.053868331404 L 11.8125,22.0625 L 11.921875,22.046875 L 12.03125,22.03125 L 12.1046370997042,21.8250086899774" fill="#000000" fill-opacity="1" />
	<path d="M 6.23486045222694,22.0980514562636 L 6.03125,21.96875 L 5.921875,21.953125 L 5.8125,21.9375 L 6.02684635930722,21.9494081270442 Q 6.24119271861445,21.9613162540883 6.49559635930722,21.9806581270442 L 6.75,22 L 6.375,22 L 6,22 L 6.4604344073557,22.224996350141 Q 6.9208688147114,22.449992700282 7.14570675791274,22.5501905585058 Q 7.37054470111409,22.6503884167296 7.68527235055704,22.8251942083648 L 8,23 L 7.90625,22.71875 L 7.8125,22.4375 L 7.84146246271742,22.5657024050903 Q 7.87042492543483,22.6939048101806 7.93521246271742,22.9719524050903 L 8,23.25 L 7.984375,23.140625 L 7.96875,23.03125 L 7.55712997363776,22.8481510573568 Q 7.14550994727551,22.6650521147135 6.7919904258647,22.4462025136204 Q 6.43847090445388,22.2273529125272 6.23486045222694,22.0980514562636" fill="#00f800" fill-opacity="1" />
	<path d="M 11.5604726721349,22.7336242561502 Q 11.4935034763154,22.5259503763639 11.9023766974115,22.3618483137627 Q 12.3112499185075,22.1977462511616 12.6243749592538,22.0988731255808 L 12.9375,22 L 12.9375,21.90625 L 12.9375,21.8125 L 12.9145434115383,21.9472527075022 Q 12.8915868230765,22.0820054150044 12.8520434115383,22.3222527075022 L 12.8125,22.5625 L 12.90625,22.28125 L 13,22 L 12.7711428074497,22.1819676544666 Q 12.5422856148995,22.3639353089332 12.299457082286,22.5244052887833 Q 12.0566285496725,22.6848752686334 11.8420352088134,22.8130867022849 Q 11.6274418679543,22.9412981359364 11.5604726721349,22.7336242561502" fill="#f8f8f8" fill-opacity="1" />
	<path d="M 3.18506036695794,23.5476254954923 L 3,23 L 3,23.375 L 3,23.75 L 2.95074389054824,23.5381114473453 Q 2.90148778109648,23.3262228946906 2.85699389054824,23.1318614473453 L 2.8125,22.9375 L 2.859375,23.015625 L 2.90625,23.09375 L 3.20588536799315,23.3069853620301 Q 3.50552073598631,23.5202207240603 3.85134461794577,23.7396458363461 Q 4.19716849990523,23.959070948632 4.31364242281469,24.115452240566 Q 4.43011634572414,24.2718335325 4.71505817286207,24.63591676625 L 5,25 L 4.43365515867302,24.8661379569343 Q 3.86731031734604,24.7322759138687 3.7240081197985,24.6327742323374 Q 3.58070592225096,24.5332725508061 3.47541332808342,24.3142617708953 Q 3.37012073391588,24.0952509909846 3.18506036695794,23.5476254954923 M 4.625,25 L 5,25 L 5.125,25 L 5.25,25 L 5,25 Q 4.75,25 4.5,25 L 4.25,25 L 4.625,25" fill="#f8e0d0" fill-opacity="1" />
	<path d="M 9.31274647638213,23.3828532563967 L 9,23 L 9.09375,23.28125 L 9.1875,23.5625 L 9.12206535140148,23.2743589785063 Q 9.05663070280297,22.9862179570127 9.02831535140148,22.8681089785063 L 9,22.75 L 9.015625,22.859375 L 9.03125,22.96875 L 9.38513394974615,23.2106724500662 Q 9.7390178994923,23.4525949001324 9.85089182159905,23.5492268490718 Q 9.9627657437058,23.6458587980111 10.2780852363634,24.0047857344347 Q 10.593404729021,24.3637126708583 10.8123273645105,24.6662313354292 L 11.03125,24.96875 L 11.140625,24.984375 L 11.25,25 L 11.051047431227,24.9434844970411 Q 10.8520948624539,24.8869689940822 10.644797431227,24.8497344970411 L 10.4375,24.8125 L 10.71875,24.90625 L 11,25 L 10.8000393091003,24.8549763004319 Q 10.6000786182005,24.7099526008637 10.2620306619848,24.4140883654072 Q 9.92398270576912,24.1182241299507 9.77473782926669,23.941965321372 Q 9.62549295276426,23.7657065127933 9.31274647638213,23.3828532563967" fill="#006000" fill-opacity="1" />
	<path d="M 7.984375,24.515625 L 8,24 L 8.35238395836897,24.2047338709315 Q 8.70476791673795,24.4094677418631 8.96720770549947,24.6540305260995 Q 9.22964749426099,24.8985933103359 9.44631369668469,25.1910064456186 Q 9.6629798991084,25.4834195809012 9.8314899495542,25.7417097904506 L 10,26 L 9.90625,25.71875 L 9.8125,25.4375 L 9.90757682327301,25.6185136603278 Q 10.002653646546,25.7995273206555 10.095076823273,25.9310136603278 L 10.1875,26.0625 L 10.125,26 L 10.0625,25.9375 L 9.53125,25.96875 L 9,26 L 8.73521131858472,25.7396904172444 Q 8.47042263716945,25.4793808344888 8.23521131858472,25.2396904172444 L 8,25 L 8.28125,25.09375 L 8.5625,25.1875 L 8.4278785735906,25.1565439352854 Q 8.2932571471812,25.1255878705709 8.0216285735906,25.0627939352854 L 7.75,25 L 7.859375,25.015625 L 7.96875,25.03125 L 7.984375,24.515625 M 8.90625,25.71875 L 9,26 L 9.03125,26.09375 L 9.0625,26.1875 L 9,26 Q 8.9375,25.8125 8.875,25.625 L 8.8125,25.4375 L 8.90625,25.71875" fill="#f8e0d0" fill-opacity="1" />
	<path d="M 15.25,24.5 Q 15.25,24.25 15.5,24.25 Q 15.75,24.25 15.75,24.5 Q 15.75,24.75 15.5,24.75 Q 15.25,24.75 15.25,24.5" fill="#00f800" fill-opacity="1" />
	<path d="M 13.25,25.5 Q 13.25,25.25 13.5,25.25 Q 13.75,25.25 13.75,25.5 Q 13.75,25.75 13.5,25.75 Q 13.25,25.75 13.25,25.5" fill="#f8c0a8" fill-opacity="1" />
	<path d="M 4.26290204638518,26.8024957401457 Q 4.41891324231118,26.5706358982463 4.70945662115559,26.2853179491231 L 5,26 L 4.71875,26.09375 L 4.4375,26.1875 L 4.70652212864092,26.115592379526 Q 4.97554425728183,26.0436847590521 5.11277212864092,26.021842379526 L 5.25,26 L 5.140625,26.015625 L 5.03125,26.03125 L 5.1743948303786,26.6116220423002 Q 5.31753966075719,27.1919940846004 5.3489465282643,27.4308010731734 Q 5.3803533957714,27.6696080617465 5.40569502707487,27.8502365492344 Q 5.43103665837833,28.0308650367222 5.34091612194475,28.4551416198747 Q 5.25079558551116,28.8794182030272 5.18008123698764,29.1377456483665 Q 5.10936688846413,29.3960730937058 5.05468344423207,29.6980365468529 L 5,30 L 4.39823018766392,29.768357541246 Q 3.79646037532783,29.5367150824921 3.69300793364784,29.4461575516365 Q 3.58955549196785,29.355600020781 3.54955164426917,29.104890426204 Q 3.50954779657049,28.8541808316271 3.52331345706983,28.5464343538549 Q 3.53707911756918,28.2386878760828 3.69586059535894,27.8799259244138 Q 3.85464207314869,27.5211639727448 3.98076646180393,27.2777597773949 Q 4.10689085045918,27.0343555820451 4.26290204638518,26.8024957401457 M 4.625,30 L 5,30 L 5.125,30 L 5.25,30 L 5,30 Q 4.75,30 4.5,30 L 4.25,30 L 4.625,30" fill="#903020" fill-opacity="1" />
	<path d="M 5.11345832697597,26.5126251375463 L 5.03125,26.03125 L 4.921875,26.046875 L 4.8125,26.0625 L 5.10665118820053,26.0413556595496 Q 5.40080237640105,26.0202113190993 5.57540118820053,26.0101056595496 L 5.75,26 L 5.375,26 L 5,26 L 5.5,26 L 6,26 L 6.07324726897559,26.4312450634869 Q 6.14649453795119,26.8624901269737 6.23758469000463,27.1855787066734 Q 6.32867484205806,27.5086672863731 6.66433742102903,27.7543336431865 L 7,28 L 7,28.5 L 7,29 L 6.63201077253651,29.1375002056651 Q 6.26402154507303,29.2750004113303 6.13201077253651,29.6375002056651 L 6,30 L 5.5,30 L 5,30 L 5.17736371297616,29.6470334772414 Q 5.35472742595231,29.2940669544828 5.43040872478411,28.9367531441672 Q 5.50609002361591,28.5794393338517 5.46361379425559,28.3891554112554 Q 5.42113756489527,28.1988714886591 5.3789118252771,27.9875483922893 Q 5.33668608565893,27.7762252959196 5.26617636980544,27.3851127855061 Q 5.19566665395194,26.9940002750927 5.11345832697597,26.5126251375463 M 4.875,30 L 5,30 L 5.375,30 L 5.75,30 L 5.5,30 Q 5.25,30 5,30 L 4.75,30 L 4.875,30 M 5.625,30 L 6,30 L 6.125,30 L 6.25,30 L 6,30 Q 5.75,30 5.5,30 L 5.25,30 L 5.625,30 M 6.71875,29.09375 L 7,29 L 7.09375,28.96875 L 7.1875,28.9375 L 7,29 Q 6.8125,29.0625 6.625,29.125 L 6.4375,29.1875 L 6.71875,29.09375 M 7.09375,28.03125 L 7,28 L 6.71875,27.90625 L 6.4375,27.8125 L 6.625,27.875 Q 6.8125,27.9375 7,28 L 7.1875,28.0625 L 7.09375,28.03125 M 6.125,26 L 6,26 L 5.625,26 L 5.25,26 L 5.5,26 Q 5.75,26 6,26 L 6.25,26 L 6.125,26" fill="#f84020" fill-opacity="1" />
	<path d="M 6.11054127889711,26.3210325108706 L 6,26 L 6.38473414001508,26.07023638397 Q 6.76946828003017,26.14047276794 7.0374310766521,26.3347283000288 Q 7.30539387327404,26.5289838321176 7.57469517866252,26.848989232111 Q 7.84399648405099,27.1689946321044 8.00193635458799,27.4560855397808 Q 8.15987622512499,27.7431764474573 8.26482058497603,27.9980557553927 Q 8.36976494482708,28.2529350633281 8.4187481140747,28.6275795908017 Q 8.46773128332231,29.0022241182752 8.50084734795422,29.2915186792573 Q 8.53396341258612,29.5808132402393 8.3416085793423,29.6328807245918 Q 8.14925374609849,29.6849482089444 7.55545447725707,29.7718902095614 Q 6.96165520841566,29.8588322101784 6.48082760420783,29.9294161050892 L 6,30 L 6.15776106015326,29.85846518867 Q 6.31552212030651,29.7169303773399 6.68098344120941,29.4856898283985 Q 7.04644476211231,29.2544492794571 7.20048014497174,29.0812267668458 Q 7.35451552783116,28.9080042542345 7.24999966396717,28.6897892886492 Q 7.14548380010318,28.471574323064 7.04405695789915,28.2752200606164 Q 6.94263011569513,28.0788657981688 6.83156398600273,27.8653642169039 Q 6.72049785631034,27.651862635639 6.47079020705227,27.1469638286901 Q 6.22108255779421,26.6420650217412 6.11054127889711,26.3210325108706 M 5.875,30 L 6,30 L 6.375,30 L 6.75,30 L 6.5,30 Q 6.25,30 6,30 L 5.75,30 L 5.875,30 M 6.375,26 L 6,26 L 5.875,26 L 5.75,26 L 6,26 Q 6.25,26 6.5,26 L 6.75,26 L 6.375,26" fill="#f89000" fill-opacity="1" />
	<path d="M 9.24054457980234,26.1934104370039 L 9,26 L 9.53125,25.96875 L 10.0625,25.9375 L 10,25.875 L 9.9375,25.8125 L 10.1439501313814,25.9268300087083 Q 10.3504002627627,26.0411600174167 10.4564501313814,26.1143300087083 L 10.5625,26.1875 L 10.28125,26.09375 L 10,26 L 10.308696562277,26.1412110370077 Q 10.617393124554,26.2824220740155 10.4693938041895,26.3503258741579 Q 10.3213944838249,26.4182296743003 10.0770618819874,26.5401904909127 Q 9.8327292801499,26.6621513075252 9.65690921987729,26.5244860907665 Q 9.48108915960467,26.3868208740078 9.24054457980234,26.1934104370039 M 8.96875,25.90625 L 9,26 L 9.09375,26.28125 L 9.1875,26.5625 L 9.125,26.375 Q 9.0625,26.1875 9,26 L 8.9375,25.8125 L 8.96875,25.90625" fill="#f8c0a8" fill-opacity="1" />
	<path d="M 11.2729896986673,27.7643543261578 Q 11.5459793973346,27.5287086523155 11.7645715254543,27.5303721840751 Q 11.983163653574,27.5320357158347 12.2036102386558,27.5813194399613 Q 12.4240568237375,27.6306031640878 12.7975900260429,27.7164451604611 Q 13.1711232283484,27.8022871568344 13.5855616141742,27.9011435784172 L 14,28 L 13.625,28 L 13.25,28 L 13.541881034956,28.0157877277016 Q 13.8337620699121,28.0315754554032 14.010631034956,28.0470377277016 L 14.1875,28.0625 L 14.078125,28.046875 L 13.96875,28.03125 L 14.2129147135029,28.2764425203546 Q 14.4570794270058,28.5216350407091 14.6972897135029,28.7608175203546 L 14.9375,29 L 14.9375,28.90625 L 14.9375,28.8125 L 14.8992607247314,29.0382523914337 Q 14.8610214494628,29.2640047828674 14.8367607247314,29.4132523914337 L 14.8125,29.5625 L 14.90625,29.28125 L 15,29 L 14.670329730455,29.3316989550747 Q 14.34065946091,29.6633979101495 14.170329730455,29.8316989550747 L 14,30 L 14.28125,29.90625 L 14.5625,29.8125 L 14.3466786061631,29.8645102527759 Q 14.1308572123262,29.9165205055517 13.9404286061631,29.9582602527759 L 13.75,30 L 13.859375,29.984375 L 13.96875,29.96875 L 13.6340234740752,29.7260457126501 Q 13.2992969481504,29.4833414253003 13.0900569517818,29.318859338676 Q 12.8808169554131,29.1543772520518 12.5123355482413,28.8981760962159 Q 12.1438541410695,28.6419749403801 11.9235221086354,28.5218400392143 Q 11.7031900762013,28.4017051380485 11.3515950381007,28.2008525690242 L 11,28 L 11.2729896986673,27.7643543261578" fill="#f89000" fill-opacity="1" />
	<path d="M 7,28.5 L 7,28 L 7.13791267114594,28.0309924846659 Q 7.27582534229189,28.0619849693319 7.23793757755795,28.18831636617 Q 7.20004981282402,28.3146477630081 7.10002490641201,28.657323881504 L 7,29 L 7,28.5 M 6.90625,29.03125 L 7,29 L 7.28125,28.90625 L 7.5625,28.8125 L 7.375,28.875 Q 7.1875,28.9375 7,29 L 6.8125,29.0625 L 6.90625,29.03125 M 7.28125,28.09375 L 7,28 L 6.90625,27.96875 L 6.8125,27.9375 L 7,28 Q 7.1875,28.0625 7.375,28.125 L 7.5625,28.1875 L 7.28125,28.09375" fill="#f8f8f8" fill-opacity="1" />
	<path d="M 10.4789420233767,28.8289609575954 Q 10.5879792249589,28.3464846267465 10.7939896124795,28.1732423133732 L 11,28 L 11.229475972757,28.4220544848577 Q 11.4589519455139,28.8441089697155 11.5650431028346,29.0709738508488 Q 11.6711342601553,29.2978387319822 11.8355671300777,29.6489193659911 L 12,30 L 11.4980611663186,29.8374145895766 Q 10.9961223326373,29.6748291791532 10.6720400707491,29.6245457078619 Q 10.347957808861,29.5742622365706 10.3589313153277,29.4428497625074 Q 10.3699048217944,29.3114372884442 10.4789420233767,28.8289609575954 M 11.625,30 L 12,30 L 12.125,30 L 12.25,30 L 12,30 Q 11.75,30 11.5,30 L 11.25,30 L 11.625,30" fill="#903020" fill-opacity="1" />
	<path d="M 11.149199512129,28.3305654027001 L 11,28 L 11.3166695745914,28.1627325373004 Q 11.6333391491828,28.3254650746009 12.0407110917048,28.5197051629458 Q 12.4480830342267,28.7139452512907 12.7412647880515,28.885553726844 Q 13.0344465418763,29.0571622023974 13.3210657947096,29.3295179956847 Q 13.607685047543,29.6018737889719 13.7882175237715,29.7853118944859 L 13.96875,29.96875 L 14.078125,29.953125 L 14.1875,29.9375 L 13.9098693998547,29.9562311251881 Q 13.6322387997095,29.9749622503761 13.4411193998547,29.9874811251881 L 13.25,30 L 13.625,30 L 14,30 L 13.5,30 Q 13,30 12.5,30 L 12,30 L 11.779227730366,29.581493983316 Q 11.5584554607321,29.162987966632 11.4284272424951,28.9120593860161 Q 11.2983990242581,28.6611308054003 11.149199512129,28.3305654027001 M 11.875,30 L 12,30 L 12.375,30 L 12.75,30 L 12.5,30 Q 12.25,30 12,30 L 11.75,30 L 11.875,30" fill="#f84020" fill-opacity="1" />
	<path d="M 14.206830533325,28.2786156769786 L 13.96875,28.03125 L 13.859375,28.015625 L 13.75,28 L 13.9508159160239,28.041755693824 Q 14.1516318320479,28.0835113876481 14.3570659160239,28.135505693824 L 14.5625,28.1875 L 14.28125,28.09375 L 14,28 L 14.3630497362409,28.2304774468557 Q 14.7260994724818,28.4609548937115 14.8630497362409,28.7304774468557 L 15,29 L 14.90625,28.71875 L 14.8125,28.4375 L 14.8332996072519,28.5649607980461 Q 14.8540992145038,28.6924215960921 14.8957996072519,28.9399607980461 L 14.9375,29.1875 L 14.9375,29.09375 L 14.9375,29 L 14.691205533325,28.7629906769786 Q 14.4449110666499,28.5259813539572 14.206830533325,28.2786156769786" fill="#f8f8f8" fill-opacity="1" />
</svg>
